<?xml version="1.0" encoding="utf-8"?>
<!-- Generator: Adobe Illustrator 27.5.0, SVG Export Plug-In . SVG Version: 6.00 Build 0)  -->
<svg version="1.1" xmlns="http://www.w3.org/2000/svg" xmlns:xlink="http://www.w3.org/1999/xlink" x="0px" y="0px"
	 viewBox="0 0 500 500" style="enable-background:new 0 0 500 500;" xml:space="preserve">
<g id="Background_Complete">
	<g>
		<rect x="416.779" y="398.494" style="fill:#EBEBEB;" width="33.122" height="0.25"/>
		<rect x="322.527" y="401.208" style="fill:#EBEBEB;" width="8.693" height="0.25"/>
		<rect x="396.586" y="389.208" style="fill:#EBEBEB;" width="19.192" height="0.25"/>
		<rect x="52.459" y="390.888" style="fill:#EBEBEB;" width="43.193" height="0.25"/>
		<rect x="104.556" y="390.888" style="fill:#EBEBEB;" width="6.333" height="0.25"/>
		<rect x="131.471" y="395.111" style="fill:#EBEBEB;" width="93.676" height="0.25"/>
		<path style="fill:#EBEBEB;" d="M237.014,337.8H43.915c-3.147,0-5.708-2.561-5.708-5.708V60.66c0-3.147,2.561-5.708,5.708-5.708
			h193.099c3.146,0,5.707,2.561,5.707,5.708v271.432C242.721,335.239,240.16,337.8,237.014,337.8z M43.915,55.203
			c-3.01,0-5.458,2.448-5.458,5.458v271.432c0,3.01,2.448,5.458,5.458,5.458h193.099c3.009,0,5.457-2.448,5.457-5.458V60.66
			c0-3.009-2.448-5.458-5.457-5.458H43.915z"/>
		<path style="fill:#EBEBEB;" d="M453.31,337.8H260.212c-3.147,0-5.707-2.561-5.707-5.708V60.66c0-3.147,2.561-5.708,5.707-5.708
			H453.31c3.148,0,5.708,2.561,5.708,5.708v271.432C459.019,335.239,456.458,337.8,453.31,337.8z M260.212,55.203
			c-3.009,0-5.457,2.448-5.457,5.458v271.432c0,3.01,2.448,5.458,5.457,5.458H453.31c3.01,0,5.458-2.448,5.458-5.458V60.66
			c0-3.009-2.448-5.458-5.458-5.458H260.212z"/>
		<rect y="382.398" style="fill:#EBEBEB;" width="500" height="0.25"/>
	</g>
	<g>
		<g>
			<path style="fill:#F5F5F5;" d="M131.656,330.028c0.122,0.136-0.551,1.076,2.188,0.664c4.307-0.648,11.987-4.826,16.979-7.762
				c2.251-1.325,2.508-4.447,0.546-6.172c-2.582-2.27-5.337-5.374-5.067-8.119c0.286-2.895,6.361-6.275,11.516-8.641
				c2.667-1.224,3.032-4.843,0.663-6.574c-1.647-1.203-2.971-2.579-3.025-3.919c-0.08-1.96,4.402-4.549,8.533-6.512
				c2.298-1.092,2.86-4.014,1.245-5.98c-0.566-0.69-0.842-1.479-0.549-2.351c0.421-1.255,1.388-4.423,2.429-7.886
				c1.089-3.622-3.179-6.463-6.097-4.057c-4.081,3.366-8.278,6.705-10.017,7.695c-0.843,0.48-1.646,0.362-2.387-0.116
				c-2.35-1.515-5.47-0.356-5.974,2.393c-1.278,6.967-3.434,15.225-6.68,17.231c-1.79,1.106-3.607,1.247-5.128,1.028
				c-2.159-0.31-4.165,1.162-4.413,3.329C125.414,303.06,124.299,321.799,131.656,330.028z"/>
			<path style="fill:#E0E0E0;" d="M152.485,289.547c-2.655,0.222-4.615,0.763-5.832,1.198c2.378-3.483,4.088-5.27,4.15-5.332
				c0.193-0.197,0.191-0.513-0.006-0.707c-0.196-0.194-0.512-0.19-0.707,0.005c-0.048,0.048-3.992,4.111-8.312,12.059
				c-2.121-12.787,3.234-23.965,3.29-24.08c0.091-0.186,0.014-0.411-0.172-0.502c-0.185-0.092-0.41-0.014-0.501,0.172
				c-0.059,0.12-5.776,12.048-3.184,25.467c-0.69,1.316-1.385,2.724-2.072,4.236c-1.984,4.367-4.06,9.966-5.701,16.713
				c-1.139-2.058-3.75-7.57-3.983-15.263c-0.006-0.207-0.179-0.369-0.386-0.363c-0.211,0.014-0.37,0.18-0.364,0.387
				c0.27,8.903,3.682,14.991,4.473,16.289c-2.172,9.361-3.474,20.884-2.538,34.456c0.019,0.276,0.258,0.484,0.533,0.465
				c0.021-0.001,0.042-0.004,0.062-0.008c0.244-0.048,0.42-0.27,0.402-0.525c-1.238-17.972,1.45-32.417,5.168-43.356
				c0.944-1.091,3.733-3.893,7.979-4.552c0.192-0.047,0.345-0.225,0.312-0.429c-0.032-0.204-0.224-0.344-0.428-0.312
				c-3.357,0.532-5.817,2.273-7.278,3.617c2.745-7.599,5.938-13.376,8.525-17.331c0.834-0.376,3.113-1.262,6.631-1.556
				c0.203-0.026,0.36-0.198,0.342-0.405C152.872,289.683,152.691,289.531,152.485,289.547z"/>
		</g>
		<g>
			<path style="fill:#E6E6E6;" d="M123.009,333.856c-3.542,0.067-10.17-4.008-14.571-7.019c-1.837-1.257-1.854-3.877-0.131-5.286
				c1.169-0.956,2.012-2.237,1.571-3.852c-0.556-2.035-5.322-2.739-9.914-2.937c-2.739-0.118-4.188-3.3-2.447-5.417
				c0.858-1.043,1.415-2.065,1.309-2.891c-0.223-1.737-5.866-5.406-10.481-8.136c-2.217-1.311-2.146-4.509,0.099-5.771
				c1.535-0.863,2.62-1.866,2.095-2.845c-0.48-0.896-1.576-3.078-2.794-5.532c-1.461-2.942,1.778-5.991,4.629-4.36
				c3.605,2.063,7.194,4.029,8.671,4.566c1.351,0.492,2.988-0.304,4.474-1.447c1.949-1.5,4.797-0.342,5.24,2.077
				c1.322,7.216,3.863,18.126,7.336,19.534c1.172,0.475,2.338,0.401,3.396,0.065c2.127-0.677,4.257,1.078,4.188,3.309
				C125.387,317.294,124.64,333.825,123.009,333.856z"/>
		</g>
		<path style="fill:#F5F5F5;" d="M121.157,327.126c0.081-0.032,0.154-0.08,0.198-0.164c0.131-0.249,3.205-6.195,2.516-15.033
			c-0.017-0.206-0.19-0.357-0.403-0.345c-0.207,0.017-0.361,0.196-0.345,0.403c0.582,7.462-1.645,12.924-2.27,14.288
			c-2.51-6.815-5.519-12.877-8.54-18.066c0.992-12.042-5.178-21.902-5.241-22c-0.111-0.175-0.342-0.227-0.518-0.115
			c-0.175,0.111-0.227,0.343-0.115,0.518c0.06,0.094,5.727,9.159,5.198,20.437c-7.187-12.039-14.203-19.032-14.343-19.17
			c-0.197-0.192-0.514-0.191-0.707,0.008c-0.193,0.196-0.19,0.514,0.007,0.707c0.118,0.115,5.106,5.099,10.945,13.839
			c-3.422-1.272-7.133-1.934-10.602-1.867c-0.207,0.004-0.372,0.175-0.368,0.383c0.004,0.204,0.171,0.367,0.375,0.367
			c0.002,0,0.005,0,0.007,0c3.714-0.067,7.711,0.71,11.308,2.202c2.008,3.078,4.093,6.596,6.102,10.494
			c-1.928-1.303-5.672-3.108-10.462-1.842c-0.2,0.053-0.32,0.258-0.267,0.458c0.053,0.2,0.258,0.323,0.459,0.267
			c6.075-1.602,10.357,2.028,11.058,2.674c5.499,11.073,10.242,25.072,10.87,41.114c0.01,0.27,0.232,0.48,0.499,0.48
			c0.007,0,0.013,0,0.02,0c0.276-0.011,0.491-0.243,0.48-0.52C126.593,345.786,124.294,335.864,121.157,327.126z"/>
		<path style="fill:#F0F0F0;" d="M128.774,348.841h-1.984h-17.016l4.472,29.742c0.303,2.017,2.036,3.508,4.075,3.508h18.921
			c2.039,0,3.772-1.491,4.075-3.508l4.472-29.742H128.774z"/>
		<polygon style="fill:#E0E0E0;" points="144.901,354.749 145.79,348.841 128.774,348.841 126.79,348.841 109.774,348.841 
			110.662,354.749 		"/>
		<path style="fill:#F0F0F0;" d="M148.765,351.341h-41.967c-1.002,0-1.687-1.012-1.315-1.942l0.867-2.168
			c0.215-0.538,0.736-0.89,1.315-0.89h40.233c0.579,0,1.1,0.353,1.315,0.89l0.867,2.168
			C150.452,350.329,149.767,351.341,148.765,351.341z"/>
	</g>
	<g>
		<path style="fill:#E0E0E0;" d="M101.571,206.806l-15.725-2.327c-9.237-0.964-14.722,2.954-17.913,8.745
			c6.905,7.57,16.848,12.321,27.901,12.321c7.015,0,13.58-1.92,19.208-5.254C113.197,206.591,101.571,206.806,101.571,206.806z"/>
		<path style="fill:#F5F5F5;" d="M90.029,187.009c0.24,5.208-0.138,14.617-4.183,17.47c0,0,5.097,10.111,12.613,13.481
			c4.617-3.139,3.112-11.154,3.112-11.154c-5.439-2.179-4.672-6.343-3.112-10.157L90.029,187.009z"/>
		<path style="fill:#E6E6E6;enable-background:new    ;" d="M93.464,190.952l4.995,5.716c-0.388,0.879-0.697,1.79-0.923,2.724
			c-2.105-0.628-4.718-3.435-4.617-5.725C92.933,192.736,93.118,191.816,93.464,190.952z"/>
		<path style="fill:#F5F5F5;" d="M86.188,177.48c0.674,8.523,0.776,12.152,5.162,16.454c6.602,6.464,16.935,3.786,18.818-4.774
			c1.699-7.701,0.314-20.314-8.107-23.611c-6.004-2.347-12.773,0.617-15.12,6.621C86.281,173.858,86.024,175.676,86.188,177.48z"/>
		<path style="fill:#E0E0E0;" d="M104.545,180.484c0.644,1.574,1.505,3.051,2.558,4.386c-0.709,0.528-1.614,0.718-2.475,0.517
			L104.545,180.484z"/>
		<path style="fill:#E0E0E0;" d="M101.59,188.046c0.39,0.001,0.78-0.033,1.163-0.102c0.111-0.018,0.186-0.123,0.167-0.233
			c0-0.002-0.001-0.004-0.001-0.007c-0.019-0.109-0.122-0.183-0.231-0.166c-1.719,0.337-3.496-0.16-4.792-1.339
			c-0.076-0.084-0.207-0.09-0.291-0.014c-0.084,0.077-0.09,0.207-0.014,0.291C98.671,187.497,100.104,188.059,101.59,188.046z"/>
		<path style="fill:#E0E0E0;" d="M96.731,177.131c0.111,0.026,0.227,0.007,0.324-0.053c0.852-0.596,1.939-0.746,2.921-0.405
			c0.222,0.057,0.449-0.076,0.506-0.299c0.046-0.177-0.029-0.362-0.185-0.458c-1.226-0.454-2.596-0.289-3.68,0.443
			c-0.183,0.126-0.235,0.373-0.118,0.562C96.544,177.021,96.628,177.097,96.731,177.131z"/>
		<path style="fill:#E0E0E0;" d="M108.134,177.096c0.093-0.013,0.177-0.065,0.23-0.143c0.118-0.159,0.085-0.385-0.075-0.503
			l-0.001,0c-0.923-0.709-2.132-0.93-3.246-0.593c-0.184,0.076-0.277,0.281-0.213,0.469c0.069,0.186,0.275,0.282,0.461,0.213
			c0.886-0.263,1.846-0.078,2.57,0.497C107.938,177.096,108.039,177.118,108.134,177.096z"/>
		<g>
			<path style="fill:#E0E0E0;" d="M95.334,226.19c-20.925,0-37.948-17.023-37.948-37.948c0-20.925,17.024-37.948,37.948-37.948
				c20.925,0,37.948,17.023,37.948,37.948C133.282,209.167,116.259,226.19,95.334,226.19z M95.334,151.52
				c-20.249,0-36.723,16.474-36.723,36.722c0,20.249,16.474,36.723,36.723,36.723c20.249,0,36.722-16.474,36.722-36.723
				C132.057,167.993,115.583,151.52,95.334,151.52z"/>
		</g>
		<path style="fill:#E0E0E0;" d="M98.472,180.004c0.01,0.566,0.312,1.019,0.682,1.011c0.37-0.008,0.657-0.466,0.648-1.032
			c-0.01-0.566-0.313-1.011-0.683-1.003C98.749,178.988,98.461,179.446,98.472,180.004z"/>
		<path style="fill:#E0E0E0;" d="M105.687,180.004c0.01,0.566,0.312,1.019,0.681,1.011c0.37-0.008,0.657-0.466,0.648-1.032
			c-0.01-0.566-0.313-1.011-0.683-1.003C105.964,178.988,105.676,179.446,105.687,180.004z"/>
		<path style="fill:#E0E0E0;" d="M87.775,184.239c0,0,3.84-1.589,2.965-5.964c0,0,5.188-1.875,4.594-6.125
			c0,0,8.031,1.875,8.531-1.25c0,0,7.25,3.25,7.75,0s-3.18-4.375-3.18-4.375s0.397-7.374-6.629-4.875c0,0-4.088-4.25-8.889,0.625
			c0,0-4.839-2.125-7.07,4.5c0,0-4.607,2.25-3.232,7.125c0,0-3.208,3.068-0.875,6.098C81.74,179.998,81.06,188.577,87.775,184.239z"
			/>
		<path style="fill:#F5F5F5;" d="M84.621,185.144c0.955,1.454,2.443,2.474,4.144,2.839c2.265,0.452,3.232-1.604,2.463-3.655
			c-0.688-1.839-2.699-4.301-4.901-3.841C84.125,180.947,83.469,183.335,84.621,185.144z"/>
	</g>
	<g>
		<path style="fill:#E0E0E0;" d="M383.523,259.05c0,0-24.765-4.895-24.226,0c0,0-2.127-5.021,0.112-14.688
			c2.239-9.667,2.999-11.667,2.999-11.667l13.727-1.313l10.513,6.188l0.625,10.25l-0.938,6.313L383.523,259.05z"/>
		<path style="fill:#E0E0E0;" d="M368.541,270.685l15.725-2.327c9.237-0.964,14.722,2.954,17.913,8.746
			c-6.905,7.57-16.848,12.321-27.901,12.321c-7.015,0-13.58-1.92-19.208-5.254C356.915,270.47,368.541,270.685,368.541,270.685z"/>
		<path style="fill:#F5F5F5;" d="M380.083,250.888c-0.24,5.208,0.138,14.617,4.183,17.47c0,0-4.408,9.204-12.613,8.481
			c-5.562-0.49-3.112-6.154-3.112-6.154c5.439-2.179,4.672-6.344,3.112-10.157L380.083,250.888z"/>
		<path style="fill:#E6E6E6;enable-background:new    ;" d="M376.648,254.83l-4.995,5.716c0.388,0.879,0.697,1.79,0.923,2.724
			c2.105-0.628,4.718-3.435,4.617-5.725C377.179,256.614,376.994,255.694,376.648,254.83z"/>
		<path style="fill:#F5F5F5;" d="M383.924,241.358c-0.674,8.523-0.776,12.152-5.162,16.454c-6.602,6.464-16.935,3.786-18.818-4.774
			c-1.699-7.701-0.314-20.314,8.107-23.611c6.003-2.347,12.773,0.617,15.12,6.621C383.831,237.737,384.088,239.554,383.924,241.358z
			"/>
		<path style="fill:#E0E0E0;" d="M365.567,244.362c-0.644,1.574-1.505,3.051-2.558,4.386c0.708,0.528,1.614,0.718,2.475,0.517
			L365.567,244.362z"/>
		<path style="fill:#E0E0E0;" d="M368.522,251.924c-0.39,0.001-0.779-0.033-1.163-0.102c-0.111-0.018-0.186-0.123-0.167-0.233
			c0-0.002,0.001-0.004,0.001-0.007c0.019-0.109,0.122-0.183,0.231-0.166c1.719,0.337,3.496-0.16,4.792-1.339
			c0.077-0.084,0.207-0.09,0.291-0.014c0.084,0.077,0.09,0.207,0.014,0.291C371.441,251.376,370.008,251.938,368.522,251.924z"/>
		<path style="fill:#E0E0E0;" d="M373.381,241.009c-0.111,0.026-0.227,0.007-0.324-0.053c-0.852-0.596-1.939-0.746-2.921-0.405
			c-0.222,0.057-0.449-0.076-0.506-0.299c-0.046-0.177,0.029-0.362,0.185-0.458c1.226-0.454,2.596-0.289,3.68,0.443
			c0.183,0.126,0.235,0.373,0.118,0.562C373.568,240.899,373.484,240.975,373.381,241.009z"/>
		<path style="fill:#E0E0E0;" d="M361.978,240.974c-0.093-0.013-0.177-0.065-0.23-0.143c-0.118-0.159-0.085-0.385,0.075-0.503
			l0.001,0c0.923-0.709,2.132-0.93,3.246-0.593c0.184,0.076,0.277,0.281,0.213,0.469c-0.069,0.186-0.275,0.282-0.461,0.213
			c-0.887-0.263-1.846-0.078-2.57,0.497C362.174,240.975,362.073,240.996,361.978,240.974z"/>
		<g>
			<path style="fill:#E0E0E0;" d="M336.83,252.121c0-20.925,17.023-37.948,37.948-37.948s37.948,17.023,37.948,37.948
				c0,20.925-17.024,37.948-37.948,37.948S336.83,273.046,336.83,252.121z M338.056,252.121c0,20.249,16.473,36.723,36.722,36.723
				S411.5,272.37,411.5,252.121c0-20.249-16.474-36.722-36.723-36.722S338.056,231.872,338.056,252.121z"/>
		</g>
		<path style="fill:#E0E0E0;" d="M371.64,243.883c-0.01,0.566-0.312,1.019-0.681,1.011c-0.37-0.008-0.657-0.466-0.648-1.032
			c0.01-0.566,0.313-1.011,0.683-1.003C371.363,242.867,371.651,243.324,371.64,243.883z"/>
		<path style="fill:#E0E0E0;" d="M364.425,243.883c-0.01,0.566-0.312,1.019-0.681,1.011c-0.37-0.008-0.657-0.466-0.648-1.032
			c0.01-0.566,0.313-1.011,0.683-1.003C364.148,242.867,364.436,243.324,364.425,243.883z"/>
		<path style="fill:#E0E0E0;" d="M370.994,242.859c0,0-0.72,0.212-1.377-0.226c0,0,0.092,0.781,1.358,0.625L370.994,242.859z"/>
		<path style="fill:#E0E0E0;" d="M363.784,242.859c0,0-0.72,0.212-1.377-0.226c0,0,0.092,0.781,1.358,0.625L363.784,242.859z"/>
		<path style="fill:#E0E0E0;" d="M381.96,247.758c0,0-5.813,0.964-5.313-6.737c0.5-7.701-4.25-3.388-5.313-7.263
			c0,0-2.095-0.25-1.454,2.25c0,0-10.287,2.875-10.573-0.125c-0.286-3,4.527-10.688,13.777-8.375c0,0,11-1.688,13.938,8.75
			s0.688,16.938,4.563,20.062c3.875,3.125-9.875,3.438-9.875,3.438L381.96,247.758z"/>
		<path style="fill:#F5F5F5;" d="M385.491,249.023c-0.954,1.454-2.443,2.474-4.144,2.839c-2.265,0.452-3.232-1.604-2.463-3.655
			c0.688-1.839,2.699-4.301,4.901-3.841C385.987,244.826,386.643,247.214,385.491,249.023z"/>
	</g>
	<g>
		<g>
			<path style="fill:#E6E6E6;" d="M374.171,134.15c-11.276,0-20.45-9.174-20.45-20.45c0-11.276,9.174-20.45,20.45-20.45
				c11.276,0,20.45,9.174,20.45,20.45C394.62,124.976,385.447,134.15,374.171,134.15z M374.171,94.75
				c-10.449,0-18.95,8.501-18.95,18.95c0,10.449,8.501,18.95,18.95,18.95c10.449,0,18.95-8.501,18.95-18.95
				C393.12,103.251,384.619,94.75,374.171,94.75z"/>
		</g>
		<path style="fill:#E6E6E6;" d="M374.17,133.4c3.66,0,7.075-1.016,10.011-2.755c-0.141-2.208-0.309-4.808-0.396-6.085
			c-0.195-2.867-2.591-5.086-5.464-5.086h-8.302c-2.873,0-5.268,2.219-5.464,5.086c-0.087,1.277-0.254,3.876-0.396,6.085
			C367.096,132.384,370.51,133.4,374.17,133.4z"/>
		<path style="fill:#E6E6E6;" d="M379.17,109.725c0,2.761-2.239,6-5,6c-2.761,0-5-3.239-5-6s2.239-5,5-5
			C376.932,104.725,379.17,106.963,379.17,109.725z"/>
	</g>
</g>
<g id="Background_Simple" style="display:none;">
	<g style="display:inline;">
		<path style="fill:#407BFF;" d="M103.747,272.985c2.376,34.059-23.13,81.723,18.154,104.028
			c55.136,29.788,96.229-30.671,143.61-38.444c36.194-5.937,92.143,63.509,139.689,26.292
			c47.593-37.254-22.215-99.146-22.263-132.655c-0.047-33.153,66.319-85.405,19.777-124.46
			c-45.639-38.297-106.193,22.629-153.104,31.062c-41.618,7.48-136.292-52.294-169.893-4.152
			C47.888,180.261,101.453,240.105,103.747,272.985z"/>
		<path style="opacity:0.9;fill:#FFFFFF;" d="M103.747,272.985c2.376,34.059-23.13,81.723,18.154,104.028
			c55.136,29.788,96.229-30.671,143.61-38.444c36.194-5.937,92.143,63.509,139.689,26.292
			c47.593-37.254-22.215-99.146-22.263-132.655c-0.047-33.153,66.319-85.405,19.777-124.46
			c-45.639-38.297-106.193,22.629-153.104,31.062c-41.618,7.48-136.292-52.294-169.893-4.152
			C47.888,180.261,101.453,240.105,103.747,272.985z"/>
	</g>
</g>
<g id="Shadow">
	<ellipse id="_x3C_Path_x3E__1_" style="fill:#F5F5F5;" cx="245.178" cy="412.391" rx="193.889" ry="11.323"/>
</g>
<g id="Table">
	<g>
		<g>
			<g>
				<path style="fill:#407BFF;" d="M364.247,330.488h-66.055c-2.47,0-4.473-2.003-4.473-4.473v-6.584h75v6.584
					C368.72,328.486,366.718,330.488,364.247,330.488z"/>
				<path style="opacity:0.3;fill:#FFFFFF;" d="M364.247,330.488h-66.055c-2.47,0-4.473-2.003-4.473-4.473v-6.584h75v6.584
					C368.72,328.486,366.718,330.488,364.247,330.488z"/>
			</g>
			<g>
				<path style="fill:#263238;" d="M358.249,329.577h-54.058c-1.007,0-1.843,0.776-1.917,1.78l-5.86,78.835
					c-0.062,0.826,0.558,1.546,1.385,1.607l0,0c0.826,0.061,1.546-0.559,1.608-1.385l5.715-76.895
					c0.039-0.531,0.482-0.942,1.015-0.942h50.167c0.533,0,0.975,0.411,1.015,0.942l5.715,76.895
					c0.061,0.826,0.781,1.446,1.608,1.385l0,0c0.826-0.061,1.446-0.781,1.385-1.607l-5.86-78.835
					C360.092,330.353,359.255,329.577,358.249,329.577z"/>
				<g>
					<path style="fill:#263238;" d="M331.22,411.804L331.22,411.804c-0.828,0-1.5-0.672-1.5-1.5v-79.006h3v79.006
						C332.72,411.132,332.049,411.804,331.22,411.804z"/>
				</g>
				<g>
					<path style="fill:#263238;" d="M316.672,331.298L316.672,331.298c0.828,0,1.5-0.672,1.5-1.5v-7.333c0-0.829-0.672-1.5-1.5-1.5
						l0,0c-0.828,0-1.5,0.671-1.5,1.5v7.333C315.172,330.627,315.843,331.298,316.672,331.298z"/>
					<g>
						<path style="fill:#263238;" d="M345.769,331.298L345.769,331.298c0.828,0,1.5-0.672,1.5-1.5v-7.333c0-0.829-0.672-1.5-1.5-1.5
							l0,0c-0.828,0-1.5,0.671-1.5,1.5v7.333C344.269,330.627,344.94,331.298,345.769,331.298z"/>
					</g>
				</g>
			</g>
		</g>
		<g>
			<g>
				<path style="fill:#407BFF;" d="M335.256,298.78c-0.069,0-0.136,0.007-0.204,0.009v-0.779c0-1.081-0.876-1.957-1.957-1.957
					h-11.268c-1.081,0-1.957,0.876-1.957,1.957v12.107c0,3.799,3.079,6.878,6.879,6.878h1.424c3.296,0,6.047-2.319,6.719-5.414
					c0.122,0.005,0.242,0.016,0.365,0.016c4.179,0,6.749-3.687,6.749-7.227C342.006,300.831,339.435,298.78,335.256,298.78z
					 M335.114,309.369c-0.021,0-0.041-0.002-0.062-0.003v-8.357c0.021,0,0.041-0.003,0.062-0.003c2.727,0,4.403,1.338,4.403,3.647
					C339.517,306.964,337.841,309.369,335.114,309.369z"/>
				<path style="opacity:0.7;fill:#FFFFFF;" d="M335.256,298.78c-0.069,0-0.136,0.007-0.204,0.009v-0.779
					c0-1.081-0.876-1.957-1.957-1.957h-11.268c-1.081,0-1.957,0.876-1.957,1.957v12.107c0,3.799,3.079,6.878,6.879,6.878h1.424
					c3.296,0,6.047-2.319,6.719-5.414c0.122,0.005,0.242,0.016,0.365,0.016c4.179,0,6.749-3.687,6.749-7.227
					C342.006,300.831,339.435,298.78,335.256,298.78z M335.114,309.369c-0.021,0-0.041-0.002-0.062-0.003v-8.357
					c0.021,0,0.041-0.003,0.062-0.003c2.727,0,4.403,1.338,4.403,3.647C339.517,306.964,337.841,309.369,335.114,309.369z"/>
				<path style="opacity:0.1;" d="M335.114,309.369c-0.021,0-0.041-0.005-0.062-0.005v0.753c0,0.502-0.057,0.99-0.159,1.461
					c0.122,0.005,0.241,0.019,0.364,0.019c0.604,0,1.17-0.085,1.704-0.227v-2.417C336.418,309.217,335.799,309.369,335.114,309.369z
					"/>
				<path style="opacity:0.1;" d="M320.286,312.453c0.957,2.647,3.485,4.542,6.463,4.542h1.424c2.977,0,5.505-1.895,6.463-4.542
					H320.286z"/>
				<path style="opacity:0.1;" d="M335.256,298.78c-0.069,0-0.136,0.009-0.204,0.011v2.222c0.021,0,0.041-0.005,0.062-0.005
					c0.685,0,1.304,0.085,1.846,0.249v-2.344C336.426,298.828,335.86,298.78,335.256,298.78z"/>
			</g>
			<g>
				<path style="fill:#407BFF;" d="M339.352,313.624h-24.115c-1.037,0-1.348,1.411-0.406,1.846l5.301,2.453v1.508h14.326v-1.508
					l5.301-2.453C340.7,315.035,340.389,313.624,339.352,313.624z"/>
				<path style="opacity:0.6;fill:#FFFFFF;" d="M339.352,313.624h-24.115c-1.037,0-1.348,1.411-0.406,1.846l5.301,2.453v1.508
					h14.326v-1.508l5.301-2.453C340.7,315.035,340.389,313.624,339.352,313.624z"/>
			</g>
		</g>
	</g>
</g>
<g id="Speech_bubble">
	<g>
		<g>
			<g>
				<path style="fill:#407BFF;" d="M281.856,137.787c-3.498,0-7.019-0.893-10.211-2.724l-9.427,1.818l1.818-9.427
					c-4.608-8.032-3.276-18.155,3.283-24.714c3.878-3.878,9.035-6.015,14.52-6.015c5.485,0,10.642,2.136,14.52,6.015
					c3.878,3.878,6.015,9.035,6.015,14.52c0,5.485-2.136,10.642-6.015,14.52l0,0C292.407,135.732,287.159,137.787,281.856,137.787z
					 M271.916,133.483l0.245,0.145c7.481,4.43,16.995,3.232,23.137-2.908l0,0c3.595-3.595,5.575-8.375,5.575-13.46
					c0-5.085-1.98-9.864-5.575-13.46c-3.595-3.595-8.375-5.575-13.459-5.575c-5.085,0-9.864,1.98-13.46,5.575
					c-6.142,6.142-7.338,15.656-2.908,23.137l0.145,0.245l-1.505,7.806L271.916,133.483z"/>
			</g>
			<g style="opacity:0.5;">
				<path style="fill:#FFFFFF;" d="M281.856,137.787c-3.498,0-7.019-0.893-10.211-2.724l-9.427,1.818l1.818-9.427
					c-4.608-8.032-3.276-18.155,3.283-24.714c3.878-3.878,9.035-6.015,14.52-6.015c5.485,0,10.642,2.136,14.52,6.015
					c3.878,3.878,6.015,9.035,6.015,14.52c0,5.485-2.136,10.642-6.015,14.52l0,0C292.407,135.732,287.159,137.787,281.856,137.787z
					 M271.916,133.483l0.245,0.145c7.481,4.43,16.995,3.232,23.137-2.908l0,0c3.595-3.595,5.575-8.375,5.575-13.46
					c0-5.085-1.98-9.864-5.575-13.46c-3.595-3.595-8.375-5.575-13.459-5.575c-5.085,0-9.864,1.98-13.46,5.575
					c-6.142,6.142-7.338,15.656-2.908,23.137l0.145,0.245l-1.505,7.806L271.916,133.483z"/>
			</g>
		</g>
		<g>
			<path style="fill:#407BFF;" d="M280.621,127.818l-11.078-12.14c-0.817-0.895-0.69-2.346,0.284-3.241l0,0
				c0.973-0.895,2.424-0.895,3.241,0l8.12,8.899l18.798-17.285c0.973-0.895,2.424-0.895,3.241,0l0,0
				c0.817,0.895,0.69,2.346-0.284,3.241L280.621,127.818z"/>
		</g>
	</g>
</g>
<g id="Character_4">
	<g>
		<g>
			<g>
				
					<ellipse transform="matrix(0.7071 -0.7071 0.7071 0.7071 -28.0131 285.9848)" style="fill:#407BFF;" cx="331.208" cy="176.807" rx="33.409" ry="33.409"/>
				
					<ellipse transform="matrix(0.7071 -0.7071 0.7071 0.7071 -28.0131 285.9848)" style="opacity:0.5;fill:#FFFFFF;" cx="331.208" cy="176.807" rx="33.409" ry="33.409"/>
				<g>
					<g>
						<path style="fill:#407BFF;" d="M293.26,176.807c0-20.925,17.023-37.948,37.948-37.948c20.925,0,37.948,17.023,37.948,37.948
							c0,20.925-17.024,37.948-37.948,37.948C310.283,214.755,293.26,197.732,293.26,176.807z M294.485,176.807
							c0,20.249,16.474,36.723,36.722,36.723c20.249,0,36.723-16.474,36.723-36.723c0-20.249-16.474-36.722-36.723-36.722
							C310.959,140.085,294.485,156.558,294.485,176.807z"/>
					</g>
					<g style="opacity:0.5;">
						<path style="fill:#FFFFFF;" d="M293.26,176.807c0-20.925,17.023-37.948,37.948-37.948c20.925,0,37.948,17.023,37.948,37.948
							c0,20.925-17.024,37.948-37.948,37.948C310.283,214.755,293.26,197.732,293.26,176.807z M294.485,176.807
							c0,20.249,16.474,36.723,36.722,36.723c20.249,0,36.723-16.474,36.723-36.723c0-20.249-16.474-36.722-36.723-36.722
							C310.959,140.085,294.485,156.558,294.485,176.807z"/>
					</g>
				</g>
			</g>
			<path style="fill:#263238;" d="M310.712,198.926c2.776-3.266,14.838-2.178,14.838-2.178l11.793-1.128
				c9.663-1.992,14.736,0.667,17.83,4.352c0.015,0.018,0.027,0.037,0.042,0.055c-6.074,6.279-14.582,10.188-24.008,10.188
				c-8.402,0-16.074-3.109-21.945-8.23C309.683,200.66,310.164,199.571,310.712,198.926z"/>
			<path style="fill:#263238;" d="M319.449,155.828c0,0-7.032,0.645-2.737,10.223l4.816-2.78l0.786-5.811L319.449,155.828z"/>
			<path style="opacity:0.6;" d="M319.449,155.828c0,0-7.032,0.645-2.737,10.223l4.816-2.78l0.786-5.811L319.449,155.828z"/>
			<path style="fill:#FFC3BD;" d="M338.865,195.695c-1.131,2.302-4.287,6.316-12.622,6.316c-5.058,0-5.415-2.079-3.914-4.435
				c4.896-2.373,4.93-7.198,3.623-11.362l10.906-10.488c-0.724,5.374-1.216,14.649,1.725,19.347
				C338.707,195.271,338.795,195.481,338.865,195.695z"/>
			<path style="opacity:0.2;enable-background:new    ;" d="M332.421,180.026l-6.472,6.17c0.319,1.077,0.545,2.18,0.678,3.296
				c2.544-0.523,5.717-2.879,6.558-5.752C333.733,181.982,333.093,180.188,332.421,180.026z"/>
			<path style="fill:#FFC3BD;" d="M338.604,166.9c-0.574,8.169-1.594,12.974-5.763,17.122c-6.262,6.252-15.228,2.389-17.089-5.763
				c-1.686-7.395-0.445-19.475,7.583-22.645c5.719-2.293,12.214,0.484,14.507,6.202C338.488,163.428,338.75,165.169,338.604,166.9z"
				/>
			<path style="fill:#263238;" d="M325.798,169.138c-0.008,0.669-0.362,1.206-0.798,1.2c-0.437-0.007-0.78-0.546-0.772-1.215
				c0.007-0.669,0.363-1.197,0.8-1.19C325.464,167.939,325.807,168.478,325.798,169.138z"/>
			<path style="fill:#263238;" d="M318.284,169.067c-0.009,0.66-0.363,1.197-0.8,1.19c-0.437-0.007-0.78-0.546-0.771-1.206
				c0.009-0.66,0.361-1.206,0.798-1.2C317.948,167.859,318.291,168.398,318.284,169.067z"/>
			<path style="fill:#ED847E;" d="M321.07,169.346c-0.815,2.024-1.905,3.925-3.241,5.65c1.196,1.109,3.178,0.633,3.178,0.633
				L321.07,169.346z"/>
			<path style="fill:#263238;" d="M328.413,166.045c0.067,0,0.133-0.014,0.195-0.04c0.166-0.134,0.202-0.373,0.081-0.549
				c-0.73-1.023-1.907-1.633-3.163-1.643c-0.216,0.012-0.382,0.198-0.37,0.415c0.013,0.217,0.198,0.382,0.415,0.369l0,0
				c0.995,0.017,1.92,0.511,2.489,1.327C328.148,166.023,328.282,166.068,328.413,166.045z"/>
			<path style="fill:#263238;" d="M315.389,166.005c0.132-0.014,0.248-0.096,0.304-0.217c0.415-0.895,1.23-1.541,2.197-1.739
				c0.214-0.025,0.367-0.219,0.342-0.433c-0.025-0.214-0.219-0.367-0.433-0.342c-1.241,0.225-2.297,1.037-2.832,2.179
				c-0.096,0.186-0.023,0.415,0.164,0.511c0.003,0.002,0.007,0.003,0.01,0.005C315.216,166.01,315.305,166.023,315.389,166.005z"/>
			<path style="fill:#263238;" d="M336.89,173.516c0,0-3.73,0.58-3.498-0.978c0.232-1.558,2.173-6.952,1.744-9.27
				c-0.199-1.079-1.348-3.228-2.329-3.72c-3.578-1.794-30.952,2.54-8.58-13.519v2.087c0,0,4.482-3.081,5.444-1.996
				c0.71,0.8-1.944,3.811-1.944,3.811s5.876-3.229,6.755-1.724c0.57,0.976-3.125,3.266-3.125,3.266S357.759,158.913,336.89,173.516z
				"/>
			<g>
				<path style="fill:#263238;" d="M320.984,176.197c0,0,8.022-1.433,7.691,1.427c-0.331,2.86-1.647,10.618-4.534,10.618
					c-1.215,0-0.493-1.122-0.493-1.122s-1.34,1.122-2.664,1.122c-1.188,0-0.126-1.701-0.126-1.701s-1.443,1.335-2.642,1.021
					c-0.5-0.131,0.138-0.943-0.232-2.073c-0.88-2.682-2.397-7.154-1.963-8.543C316.639,174.972,320.984,176.197,320.984,176.197z"/>
				<path style="opacity:0.5;fill:#FFFFFF;" d="M320.984,176.197c0,0,8.022-1.433,7.691,1.427
					c-0.331,2.86-1.647,10.618-4.534,10.618c-1.215,0-0.493-1.122-0.493-1.122s-1.34,1.122-2.664,1.122
					c-1.188,0-0.126-1.701-0.126-1.701s-1.443,1.335-2.642,1.021c-0.5-0.131,0.138-0.943-0.232-2.073
					c-0.88-2.682-2.397-7.154-1.963-8.543C316.639,174.972,320.984,176.197,320.984,176.197z"/>
			</g>
			<path style="fill:#FFFFFF;" d="M318.229,177.662c0,0,2.186-0.219,8.178,0.4c-0.9,1.529-2.382,2.701-5.43,2.358
				C317.929,180.077,318.229,177.662,318.229,177.662z"/>
			<path style="opacity:0.5;fill:#FFFFFF;" d="M344.508,165.135c-0.504,1.444-1.504,3.002-3.142,4.672
				c-3.513,0.251-5.78-0.561-6.963-1.198c0.337-1.301,0.651-2.681,0.755-3.83C340.367,165.738,343.144,165.487,344.508,165.135z"/>
			<path style="fill:#FFC3BD;" d="M342.522,174.562c-1.118,1.725-2.87,2.941-4.878,3.384c-2.674,0.55-3.83-1.873-2.936-4.302
				c0.8-2.177,3.16-5.101,5.765-4.573C343.078,169.599,343.871,172.417,342.522,174.562z"/>
		</g>
		<g>
			<polygon style="fill:#407BFF;" points="361.804,149.259 364.399,151.769 367.973,151.264 368.597,154.819 371.786,156.511 
				370.201,159.755 371.786,162.998 368.597,164.69 367.973,168.246 364.399,167.74 361.804,170.251 359.209,167.74 
				355.635,168.246 355.011,164.69 351.822,162.998 353.407,159.755 351.822,156.511 355.011,154.819 355.635,151.264 
				359.209,151.769 			"/>
			<g style="opacity:0.9;">
				<path style="fill:#FFFFFF;" d="M359.869,163.857l-3.719-4.076c-0.274-0.3-0.231-0.788,0.095-1.088l0,0
					c0.327-0.3,0.814-0.3,1.088,0l2.726,2.987l6.311-5.803c0.327-0.3,0.814-0.3,1.088,0l0,0c0.274,0.3,0.232,0.787-0.095,1.088
					L359.869,163.857z"/>
			</g>
		</g>
	</g>
</g>
<g id="Character_3">
	<g>
		<g>
			
				<ellipse transform="matrix(0.2298 -0.9732 0.9732 0.2298 -11.2006 273.6537)" style="fill:#407BFF;" cx="167.288" cy="143.903" rx="33.409" ry="33.409"/>
			
				<ellipse transform="matrix(0.2298 -0.9732 0.9732 0.2298 -11.2006 273.6537)" style="opacity:0.5;fill:#FFFFFF;" cx="167.288" cy="143.903" rx="33.409" ry="33.409"/>
			<g>
				<g>
					<path style="fill:#407BFF;" d="M167.288,181.851c-20.925,0-37.948-17.023-37.948-37.948c0-20.925,17.024-37.948,37.948-37.948
						c20.925,0,37.948,17.023,37.948,37.948C205.236,164.828,188.213,181.851,167.288,181.851z M167.288,107.181
						c-20.249,0-36.723,16.473-36.723,36.722c0,20.249,16.474,36.723,36.723,36.723c20.249,0,36.722-16.474,36.722-36.723
						C204.01,123.654,187.537,107.181,167.288,107.181z"/>
				</g>
				<g style="opacity:0.5;">
					<path style="fill:#FFFFFF;" d="M167.288,181.851c-20.925,0-37.948-17.023-37.948-37.948c0-20.925,17.024-37.948,37.948-37.948
						c20.925,0,37.948,17.023,37.948,37.948C205.236,164.828,188.213,181.851,167.288,181.851z M167.288,107.181
						c-20.249,0-36.723,16.473-36.723,36.722c0,20.249,16.474,36.723,36.723,36.723c20.249,0,36.722-16.474,36.722-36.723
						C204.01,123.654,187.537,107.181,167.288,107.181z"/>
				</g>
			</g>
		</g>
		<g>
			<path style="fill:#407BFF;" d="M167.288,177.312c7.159,0,13.787-2.26,19.225-6.094c-1.439-4.244-3.247-9.368-4.369-11.79
				c-2.587-5.583-5.557-7.357-27.857-7.543c-10.419-0.087-13.727,5.398-14.296,11.268
				C146.04,171.715,156.007,177.312,167.288,177.312z"/>
			<path style="opacity:0.8;fill:#FFFFFF;" d="M167.288,177.312c7.159,0,13.787-2.26,19.225-6.094
				c-1.439-4.244-3.247-9.368-4.369-11.79c-2.587-5.583-5.557-7.357-27.857-7.543c-10.419-0.087-13.727,5.398-14.296,11.268
				C146.04,171.715,156.007,177.312,167.288,177.312z"/>
		</g>
		<g>
			<path style="fill:#263238;" d="M178.577,120.495c0,0,5.723-0.779,3.666-4.067c-0.226-0.361-0.796-0.231-0.837,0.193
				C181.299,117.734,180.728,119.337,178.577,120.495z"/>
		</g>
		<g>
			<path style="fill:#263238;" d="M159.209,111.897c0,0-8.03,1.121-6.5-4.104c0.168-0.574,0.988-0.615,1.204-0.058
				C154.482,109.199,155.862,111.148,159.209,111.897z"/>
		</g>
		<path style="fill:#263238;" d="M157.761,132.251c0,0-2.97,7.545-6.769,3.644c-0.417-0.428-0.05-1.162,0.542-1.077
			C153.088,135.042,155.464,134.798,157.761,132.251z"/>
		<path style="fill:#263238;" d="M166.555,110.44c0,0,6.284-0.802,4.703-5.484c-1.581-4.682-3.185-7.357-2.606-10.255
			c0,0-1.522,0.149-1.364,2.675c0,0-1.699-5.648-6.529-5.202c-4.831,0.446-3.121,4.756-7.134,4.162c0,0,1.635,1.858,3.344,0.297
			c0,0-0.446,3.344-4.83,1.486c0,0,2.657,1.895,2.696,5.276c0.068,5.805-0.04,9.382,3.992,7.967L166.555,110.44z"/>
		<path style="fill:#407BFF;" d="M157.963,113.5c0,0-2.189-3.226,4.716-4.112c6.906-0.886,6.098,2.132,6.098,2.132L157.963,113.5z"
			/>
		<path style="fill:#7F3E3B;" d="M156.891,135.432c0.731,5.351,1.311,13.136-2.604,16.453c4.84,3.156,9.1,7.123,12.592,11.727
			c0.519,0.669,1.483,0.791,2.152,0.272c0.139-0.108,0.259-0.24,0.354-0.388c4.53-7.134,1.364-10.639,1.364-10.639
			c-3.451-0.767-3.032-3.835-1.784-7.892L156.891,135.432z"/>
		<path style="opacity:0.2;enable-background:new    ;" d="M160.226,139.561l6.706,3.772l2.069,1.632
			c-0.66,1.679-0.964,3.477-0.892,5.279C163.731,148.996,158.71,143.164,160.226,139.561z"/>
		<path style="fill:#7F3E3B;" d="M157.069,122.903c-1.409,8.766-2.194,12.485,1.177,17.836c5.074,8.151,16.15,7.964,20.145-0.205
			c3.567-7.357,5.351-20.457-2.39-25.799c-5.478-3.838-13.029-2.509-16.867,2.969C158.05,119.252,157.342,121.032,157.069,122.903z"
			/>
		<path style="fill:#263238;" d="M170.348,128.289c-0.152,0.704,0.089,1.355,0.553,1.463c0.464,0.107,0.963-0.383,1.115-1.088
			s-0.08-1.355-0.544-1.463C171.008,127.094,170.508,127.585,170.348,128.289z"/>
		<path style="fill:#263238;" d="M178.311,130.073c-0.161,0.704,0.089,1.364,0.544,1.463c0.455,0.098,0.963-0.384,1.124-1.088
			c0.161-0.704-0.089-1.355-0.544-1.462C178.98,128.878,178.472,129.368,178.311,130.073z"/>
		<path style="fill:#263238;" d="M179.221,128.976l1.783-0.107C181.005,128.869,179.854,130.002,179.221,128.976z"/>
		<path style="fill:#263238;" d="M173.518,138.945c0.35,0.067,0.705,0.108,1.061,0.125c0.116-0.024,0.19-0.137,0.166-0.253
			c-0.017-0.084-0.083-0.149-0.166-0.166c-1.822-0.049-3.512-0.959-4.557-2.452c-0.058-0.099-0.184-0.134-0.285-0.08
			c-0.097,0.064-0.131,0.19-0.08,0.294C170.551,137.741,171.943,138.654,173.518,138.945z"/>
		<path style="fill:#263238;" d="M169.822,122.314c0.149,0.107,0.35,0.107,0.499,0c1.614-1.115,3.995-0.268,4.013-0.259
			c0.219,0.081,0.463-0.031,0.544-0.25c0.081-0.219-0.031-0.463-0.25-0.544c-0.116,0-2.818-1.008-4.789,0.348
			c-0.19,0.135-0.237,0.396-0.107,0.589C169.753,122.244,169.783,122.283,169.822,122.314z"/>
		<path style="fill:#263238;" d="M181.597,126.924c0.095,0.117,0.244,0.177,0.394,0.158c0.228-0.036,0.386-0.246,0.358-0.475
			c-0.143-1.36-0.939-2.566-2.134-3.231c-0.212-0.102-0.466-0.013-0.568,0.199c-0.102,0.212-0.013,0.466,0.199,0.568
			c0.934,0.544,1.551,1.502,1.658,2.578C181.519,126.794,181.551,126.864,181.597,126.924z"/>
		<path style="fill:#263238;" d="M171.258,127.192l1.784-0.107C173.041,127.086,171.9,128.218,171.258,127.192z"/>
		<path style="fill:#630F0F;" d="M175.365,130.405c0.305,1.874,0.879,3.7,1.707,5.428c-0.959,0.384-2.048,0.349-2.977-0.096
			L175.365,130.405z"/>
		<path style="fill:#407BFF;" d="M174.33,129.657c-0.303,1.709-1.934,2.848-3.643,2.545c-1.709-0.303-2.848-1.934-2.545-3.643
			L174.33,129.657z"/>
		<path style="fill:#407BFF;" d="M182.022,131.022c-0.303,1.709-1.934,2.848-3.643,2.545c-1.709-0.303-2.848-1.934-2.545-3.643
			L182.022,131.022z"/>
		<g>
			<path style="fill:#263238;" d="M179.267,133.95c-0.204,0-0.409-0.017-0.614-0.054c-1.777-0.315-3-1.935-2.859-3.699l-0.877-0.155
				c-0.215,0.777-0.689,1.448-1.358,1.916c-0.761,0.532-1.682,0.737-2.598,0.573c-1.777-0.315-3-1.935-2.859-3.699l-1.605-0.287
				l-10.144-1.128l0.074-0.665l10.166,1.131l2.269,0.406l-0.042,0.237c-0.101,0.568-0.066,1.163,0.167,1.691
				c0.432,0.977,1.323,1.607,2.366,1.691c1.467,0.118,2.75-1.006,3.007-2.455l0.006-0.032c0.015-0.084,0.095-0.139,0.178-0.125
				l1.86,0.33c0.084,0.015,0.139,0.095,0.125,0.178l0,0c-0.277,1.563,0.75,3.209,2.32,3.446c0.713,0.108,1.428-0.062,2.021-0.476
				c0.615-0.429,1.025-1.073,1.156-1.811l0.658,0.117c-0.162,0.914-0.671,1.711-1.432,2.242
				C180.66,133.735,179.972,133.95,179.267,133.95z"/>
		</g>
		<path style="fill:#263238;" d="M155.863,129.649c0,0-7.937-17.522,8.463-18.934c2.191-0.188,6.657-0.512,8.796,0
			c2.76,0.661,9.567,4.861,6.907,9.007c0,0-2.421-3.434-10.511-2.654C161.427,117.85,162.448,131.305,155.863,129.649z"/>
		<path style="fill:#7F3E3B;" d="M153.279,129.279c0.271,1.697,1.204,3.218,2.595,4.227c1.846,1.329,3.567-0.143,3.683-2.292
			c0.116-1.935-0.696-4.958-2.863-5.431c-1.579-0.314-3.115,0.711-3.43,2.29C153.186,128.472,153.191,128.883,153.279,129.279z"/>
		<g>
			<path style="fill:#407BFF;" d="M157.436,139.268c-1.926,0.284-3.723-1.051-4.008-2.976c-0.219-1.481,0.523-2.944,1.847-3.64
				l0.312,0.591c-1.073,0.565-1.675,1.751-1.497,2.951c0.23,1.56,1.688,2.643,3.249,2.412c1.561-0.23,2.643-1.688,2.412-3.248
				c-0.198-1.339-1.32-2.365-2.669-2.44l0.037-0.667c1.664,0.091,3.05,1.358,3.294,3.009
				C160.696,137.186,159.361,138.984,157.436,139.268z"/>
		</g>
	</g>
	<g>
		<polygon style="fill:#407BFF;" points="196.495,112.838 199.09,115.348 202.664,114.842 203.288,118.398 206.477,120.09 
			204.892,123.334 206.477,126.577 203.288,128.269 202.664,131.825 199.09,131.319 196.495,133.829 193.9,131.319 190.326,131.825 
			189.702,128.269 186.513,126.577 188.099,123.334 186.513,120.09 189.702,118.398 190.326,114.842 193.9,115.348 		"/>
		<g style="opacity:0.9;">
			<path style="fill:#FFFFFF;" d="M194.56,127.436l-3.719-4.076c-0.274-0.3-0.232-0.787,0.095-1.088l0,0
				c0.327-0.3,0.814-0.3,1.088,0l2.726,2.987l6.311-5.803c0.327-0.3,0.814-0.3,1.088,0l0,0c0.274,0.3,0.231,0.787-0.095,1.088
				L194.56,127.436z"/>
		</g>
	</g>
</g>
<g id="Character_2">
	<g>
		<g>
			
				<ellipse transform="matrix(0.7071 -0.7071 0.7071 0.7071 -133.4614 171.3093)" style="fill:#407BFF;" cx="140.058" cy="246.757" rx="33.409" ry="33.409"/>
			
				<ellipse transform="matrix(0.7071 -0.7071 0.7071 0.7071 -133.4614 171.3093)" style="opacity:0.5;fill:#FFFFFF;" cx="140.058" cy="246.757" rx="33.409" ry="33.409"/>
			<path style="fill:#263238;" d="M152.643,260.749c4.762-5.07,3.718-11.667,1.814-19.887c-0.989-4.24,4.461-7.296,0.654-13.522
				c-3.562-5.973-24.495-11.79-25.035-0.989c-7.354,2.116-7.55,8.726-6.831,19.266c0.274,4.02-0.874,5.983-2.39,7.404
				c-3.919,3.671-2.109,10.215,3.168,11.207C133.108,265.935,146.661,267.117,152.643,260.749z"/>
			<path style="fill:#407BFF;" d="M145.134,263.584l-13.914-2.059c-8.173-0.853-13.027,2.614-15.85,7.739
				c6.11,6.698,14.908,10.902,24.689,10.902c6.208,0,12.016-1.699,16.997-4.649C155.421,263.394,145.134,263.584,145.134,263.584z"
				/>
			<path style="fill:#FFB573;" d="M134.921,246.066c0.213,4.608-0.122,12.934-3.701,15.459c0,0,4.51,8.947,11.161,11.929
				c4.085-2.778,2.753-9.87,2.753-9.87c-4.812-1.928-4.134-5.613-2.753-8.988L134.921,246.066z"/>
			<path style="opacity:0.2;enable-background:new    ;" d="M137.961,249.555l4.42,5.057c-0.343,0.778-0.617,1.584-0.817,2.41
				c-1.863-0.556-4.175-3.039-4.085-5.066C137.49,251.134,137.654,250.32,137.961,249.555z"/>
			<path style="fill:#FFB573;" d="M131.522,237.635c0.596,7.541,0.686,10.752,4.567,14.56c5.842,5.719,14.985,3.35,16.652-4.224
				c1.503-6.814,0.278-17.975-7.174-20.892c-5.312-2.077-11.302,0.546-13.379,5.859C131.605,234.43,131.377,236.038,131.522,237.635
				z"/>
			<path style="fill:#263238;" d="M136.727,226.351c9.805,3.219-8.465,17.395-8.252,25.696
				C124.528,242.308,125.958,222.829,136.727,226.351z"/>
			<path style="fill:#ED893E;" d="M147.765,239.408c0.57,1.393,1.331,2.699,2.263,3.881c-0.627,0.467-1.428,0.635-2.19,0.458
				L147.765,239.408z"/>
			<path style="fill:#263238;" d="M145.151,246.099c0.345,0.001,0.69-0.029,1.029-0.09c0.098-0.016,0.164-0.109,0.148-0.207
				c0-0.002-0.001-0.004-0.001-0.006c-0.017-0.096-0.107-0.162-0.204-0.147c-1.521,0.298-3.094-0.142-4.24-1.185
				c-0.068-0.074-0.183-0.08-0.257-0.012c-0.075,0.068-0.08,0.183-0.012,0.257C142.568,245.613,143.836,246.111,145.151,246.099z"/>
			<path style="fill:#263238;" d="M132.731,226.343c-3.031,5.548,5.719,2.394,12.762,4.69c6.536,2.116,9.845,6.357,9.126,0.204
				C153.738,223.646,137.495,217.6,132.731,226.343z"/>
			<path style="fill:#263238;" d="M140.903,236.353c0.099-0.017,0.188-0.073,0.245-0.155c0.488-0.78,1.321-1.278,2.239-1.34
				c0.201-0.03,0.339-0.217,0.309-0.418c-0.024-0.16-0.149-0.285-0.309-0.309c-1.156,0.054-2.215,0.663-2.843,1.634
				c-0.106,0.166-0.063,0.385,0.098,0.498C140.712,236.329,140.807,236.361,140.903,236.353z"/>
			<path style="fill:#263238;" d="M144.023,238.313c-0.057-0.008-0.114,0.01-0.155,0.049c-0.404,0.374-0.962,0.535-1.503,0.433
				c-0.113-0.031-0.23,0.034-0.262,0.147c-0.036,0.112,0.026,0.231,0.138,0.267c0.003,0.001,0.006,0.002,0.009,0.003
				c0.682,0.145,1.391-0.05,1.904-0.523c0.084-0.083,0.084-0.217,0.002-0.301c-0.001-0.001-0.001-0.001-0.002-0.002
				C144.122,238.345,144.075,238.318,144.023,238.313z"/>
			<path style="fill:#263238;" d="M150.87,237.978c-0.057-0.003-0.113,0.018-0.155,0.057c-0.396,0.384-0.952,0.554-1.495,0.458
				c-0.115-0.026-0.23,0.042-0.262,0.155c-0.03,0.113,0.037,0.23,0.15,0.26c0.002,0,0.003,0.001,0.005,0.001
				c0.682,0.133,1.386-0.074,1.887-0.556c0.084-0.083,0.084-0.217,0.002-0.301c-0.001,0-0.001-0.001-0.002-0.002
				C150.966,238.014,150.92,237.988,150.87,237.978z"/>
			<path style="fill:#263238;" d="M151.485,235.185c0.094-0.008,0.18-0.056,0.237-0.131c0.126-0.153,0.105-0.38-0.049-0.506
				l-0.001-0.001c-0.885-0.756-2.081-1.039-3.211-0.76c-0.188,0.066-0.291,0.266-0.237,0.458c0.059,0.189,0.26,0.295,0.449,0.237
				c0.899-0.217,1.847,0.018,2.541,0.629C151.29,235.175,151.389,235.202,151.485,235.185z"/>
			<g>
				<g>
					<path style="fill:#407BFF;" d="M140.058,284.705c-20.925,0-37.948-17.023-37.948-37.948c0-20.925,17.024-37.948,37.948-37.948
						c20.925,0,37.948,17.023,37.948,37.948C178.006,267.682,160.983,284.705,140.058,284.705z M140.058,210.034
						c-20.249,0-36.723,16.473-36.723,36.722c0,20.249,16.474,36.723,36.723,36.723s36.722-16.474,36.722-36.723
						C176.78,226.508,160.307,210.034,140.058,210.034z"/>
				</g>
				<g style="opacity:0.5;">
					<path style="fill:#FFFFFF;" d="M140.058,284.705c-20.925,0-37.948-17.023-37.948-37.948c0-20.925,17.024-37.948,37.948-37.948
						c20.925,0,37.948,17.023,37.948,37.948C178.006,267.682,160.983,284.705,140.058,284.705z M140.058,210.034
						c-20.249,0-36.723,16.473-36.723,36.722c0,20.249,16.474,36.723,36.723,36.723s36.722-16.474,36.722-36.723
						C176.78,226.508,160.307,210.034,140.058,210.034z"/>
				</g>
			</g>
		</g>
	</g>
</g>
<g id="Character_1">
	<g>
		<path style="fill:#FFB573;" d="M222.485,281.709l-8.745,127.74l7.161,1.806c0,0,13.772-44.289,14.323-69.192
			s-0.062-30.177,7.819-44.24L222.485,281.709z"/>
		<path style="fill:#FFB573;" d="M247.498,283.443l9.858,127.813l7.492-0.048c0,0,8.044-45.75,4.916-70.446
			c-3.128-24.696-7.279-29.583-1.419-44.771L247.498,283.443z"/>
		<path style="fill:#263238;" d="M257.936,409.762l7.798,0.165c0.34,0.006,0.63,0.247,0.698,0.579l1.495,7.359
			c0.137,0.652-0.28,1.292-0.932,1.429c-0.084,0.018-0.169,0.026-0.254,0.026c-3.247-0.116-6.132-0.346-10.175-0.415
			c-4.772-0.086-3.571,0.507-9.183,0.485c-3.381-0.017-3.93-3.871-2.493-4.034c6.575-0.706,8.504-2.674,11.077-4.976
			C256.526,409.94,257.226,409.72,257.936,409.762z"/>
		<path style="fill:#263238;" d="M213.651,408.643l7.692,1.293c0.335,0.055,0.587,0.335,0.607,0.674l0.412,7.499
			c0.041,0.665-0.464,1.237-1.129,1.279c-0.085,0.005-0.171,0.002-0.256-0.011c-3.196-0.585-6.017-1.231-10.008-1.885
			c-4.709-0.776-3.607-0.016-9.156-0.852c-3.343-0.507-3.327-4.399-1.882-4.352c6.608,0.254,8.802-1.413,11.682-3.318
			C212.23,408.616,212.955,408.499,213.651,408.643z"/>
		<path style="opacity:0.2;enable-background:new    ;" d="M247.498,283.443l3.702,48c5.027-0.647,10.597-1.55,16.753-2.774
			c-1.718-10.063-3.108-15.852-2.339-22.385c-0.06-3.554,0.357-7.008,1.501-11.033L247.498,283.443z"/>
		<path style="opacity:0.2;enable-background:new    ;" d="M235.429,331.967c0.356-16.609,0.932-22.22,7.614-34.144l-20.558-16.114
			l-3.371,49.241C222.797,331.536,228.119,332.034,235.429,331.967z"/>
		<path style="fill:#263238;" d="M224.873,241.278c0,0-5.274,43.947-6.739,85.551c0,0,14.356,4.102,52.151-1.758
			c0,0-1.508-6.947-0.809-16.464c1.107-15.049,5.547-31.39,0.809-47.114c-5.24-17.388-10.84-22.267-10.84-22.267l-32.814-1.465
			L224.873,241.278z"/>
		<path style="fill:#407BFF;" d="M236.393,182.151l27.384,0.714c2.025,0.053,3.428,2.032,2.801,3.958
			c-2.841,8.735-8.768,31.202-4.203,55.626h-38.381l-0.586-36.037c0,0-2.996-7.627,9.397-22.619
			C233.686,182.728,235.011,182.115,236.393,182.151z"/>
		<path style="opacity:0.9;fill:#FFFFFF;" d="M236.393,182.151l27.384,0.714c2.025,0.053,3.428,2.032,2.801,3.958
			c-2.841,8.735-8.768,31.202-4.203,55.626h-38.381l-0.586-36.037c0,0-2.996-7.627,9.397-22.619
			C233.686,182.728,235.011,182.115,236.393,182.151z"/>
		<path style="fill:#FFB573;" d="M201.145,208.887l-7.617-2.857l-2.52-5.81c-0.078-0.179-0.18-0.346-0.305-0.495l-6.388-7.663
			c-0.344-0.412-0.941-0.503-1.391-0.21l0,0c-0.521,0.338-0.641,1.05-0.26,1.54l3.393,4.362l-1.277,6.034
			c-0.211,0.997,0.06,2.034,0.731,2.801l0.58,0.662c0.268,0.306,0.592,0.559,0.954,0.746l4.286,2.208l7.325,3.662L201.145,208.887z"
			/>
		<path style="fill:#407BFF;" d="M233.352,182.15c0,0-11.024,3.542-15.762,27.716c-0.301,1.538-1.853,2.484-3.336,2.02
			l-16.778-5.254l-2.194,6.136c0,0,16.772,11.913,24.609,10.172C227.728,221.197,233.352,182.15,233.352,182.15z"/>
		<path style="opacity:0.1;" d="M219.648,201.675c-0.496,2.688-0.716,5.631-0.488,8.803c0.425,5.905,0.406,9.875,0.21,12.546
			c0.176-0.025,0.353-0.048,0.52-0.085c7.837-1.742,13.461-40.789,13.461-40.789S224.933,184.857,219.648,201.675z"/>
		<path style="fill:#263238;" d="M263.274,159.046c-0.704-2.432,0.021-4.936-1.8-7.2c-0.972-1.208-1.395-2.74-1.484-4.288
			c-0.464-8.011-10.291-10.52-17.494-10.558c-7.948-0.043-4.808,3.232-11.516,4.812c-6.708,1.581-3.057,9.853-1.24,12.216
			c1.817,2.363,0.15,6.445-3.574,12.741c0,0-4.02,7.407,16.83,4.086C242.995,170.856,268.562,177.317,263.274,159.046z"/>
		<path style="fill:#FFB573;" d="M253.651,165.697c-1.36,4.738-3.051,13.488,0.052,16.989c0,0-4.523,3.261-13.041,6.249
			c-4.98-4.883-2.062-6.785-2.062-6.785c5.483-0.862,5.803-5.563,5.231-9.377L253.651,165.697z"/>
		<path style="opacity:0.2;enable-background:new    ;" d="M250.179,170.833c0.118-0.874,0.113-1.758-0.008-2.63l-6.34,4.568
			c0.112,0.749,0.187,1.532,0.199,2.314C246.343,174.848,249.752,173.138,250.179,170.833z"/>
		<path style="fill:#FFB573;" d="M256.209,157.209c-2.17,7.799-2.917,11.147-7.769,14.352c-7.301,4.824-16.403,0.459-16.614-7.831
			c-0.188-7.461,3.385-18.955,11.785-20.456c5.996-1.103,11.751,2.864,12.855,8.86C256.776,153.822,256.688,155.56,256.209,157.209z
			"/>
		<path style="fill:#FFB573;" d="M256.748,163.856c-0.751,1.374-2.016,2.393-3.519,2.833c-1.996,0.566-3.002-1.214-2.456-3.103
			c0.49-1.694,2.121-4.04,4.131-3.777c1.457,0.236,2.447,1.609,2.212,3.066C257.059,163.223,256.934,163.556,256.748,163.856z"/>
		<path style="fill:#263238;" d="M252.764,141.428c1.361,2.427-2.2,6.827-9.534,6.286c-5.527-0.406-12.559,5.429-11.899-0.986
			C231.894,140.891,245.844,138.309,252.764,141.428z"/>
		<path style="fill:#263238;" d="M248.719,143.129c-3.876,2.872-1.411,8.266,0.396,10.699c1.807,2.434,4.614,4.732,2.359,8.261
			c-2.256,3.53-3.165,7.935,3.882,6.324c7.047-1.611,6.159-7.951,4.202-13.39C257.601,149.585,253.334,139.716,248.719,143.129z"/>
		<path style="fill:#ED893E;" d="M238.188,156.832c-0.884,1.347-1.949,2.566-3.166,3.622c0.559,0.618,1.363,0.957,2.196,0.925
			L238.188,156.832z"/>
		<path style="fill:#263238;" d="M247.379,154.301c0.056-0.001,0.111-0.016,0.161-0.042c0.153-0.089,0.206-0.285,0.117-0.438
			c-0.001-0.002-0.002-0.004-0.003-0.006c-0.588-1.072-1.661-1.79-2.875-1.925c-0.175-0.003-0.322,0.132-0.335,0.307
			c-0.008,0.174,0.124,0.322,0.298,0.334c1.001,0.128,1.88,0.728,2.363,1.614C247.163,154.242,247.267,154.301,247.379,154.301z"/>
		<path style="fill:#263238;" d="M233.717,151.506c0.056-0.001,0.111-0.016,0.161-0.042c0.871-0.5,1.928-0.554,2.845-0.143
			c0.155,0.087,0.35,0.031,0.436-0.123c0.001-0.001,0.001-0.003,0.002-0.004c0.081-0.159,0.021-0.353-0.136-0.439
			c-1.109-0.513-2.397-0.46-3.46,0.143c-0.159,0.078-0.224,0.271-0.146,0.43C233.476,151.439,233.591,151.509,233.717,151.506
			L233.717,151.506z"/>
		<g>
			<path style="fill:#263238;" d="M242.957,156.737c-0.135,0.64-0.587,1.087-1.013,1c-0.426-0.087-0.649-0.678-0.505-1.327
				c0.144-0.648,0.587-1.087,1.005-1C242.86,155.497,243.092,156.088,242.957,156.737z"/>
			<path style="fill:#263238;" d="M235.683,155.19c-0.135,0.639-0.587,1.087-1.005,1c-0.417-0.087-0.649-0.678-0.514-1.327
				c0.135-0.648,0.587-1.087,1.005-1C235.586,153.949,235.826,154.541,235.683,155.19z"/>
			<path style="fill:#263238;" d="M235.346,153.937l-1.449-0.771C233.896,153.166,234.436,154.538,235.346,153.937z"/>
			<path style="fill:#263238;" d="M242.62,155.484l-1.449-0.771C241.17,154.713,241.71,156.085,242.62,155.484z"/>
		</g>
		<path style="fill:#407BFF;" d="M253.937,181.01c-0.809-0.057-1.6,0.262-2.128,0.878c-2.483,2.894-9.259,12.437-9.259,30.385
			c0,14.319,0.829,27.85,1.407,35.54c0.257,3.415,3.548,5.755,6.858,4.876l15.759-4.184c0,0-6.227-15.659-4.785-32.277
			c1.004-11.565,4.299-23.564,6.211-29.792c0.683-2.226-0.881-4.501-3.204-4.664L253.937,181.01z"/>
		<path style="fill:#407BFF;" d="M239.38,180.923c0.62,0,0.934,0.745,0.492,1.18c-2.826,2.785-9.007,11.117-10.019,31.341
			c-0.869,17.376-1.61,29.62-2.015,35.951c-0.154,2.409-2.666,3.92-4.869,2.932l-1.32-0.592c0,0,2-9.432,1.44-30.088
			c-0.561-20.655-3.699-21.643,4.713-32.96c0.818-1.101,2.618-3.364,4.06-5.165c1.318-1.644,3.311-2.599,5.418-2.599H239.38z"/>
		<path style="fill:#FFB573;" d="M254.191,182.615l-17.52-0.457c-1.204,4.716-3.083,14.195-0.518,19.86
			C236.153,202.018,245.727,191.368,254.191,182.615z"/>
		<path style="fill:#407BFF;" d="M247.14,237.762l12.159-1.904l0.499,1.04c0.623,1.297-0.197,2.826-1.622,3.025l-8.031,1.121
			c-0.985,0.137-1.934-0.427-2.284-1.359L247.14,237.762z"/>
		<path style="opacity:0.2;" d="M247.14,237.762l12.159-1.904l0.499,1.04c0.623,1.297-0.197,2.826-1.622,3.025l-8.031,1.121
			c-0.985,0.137-1.934-0.427-2.284-1.359L247.14,237.762z"/>
		<g>
			<path style="fill:#407BFF;" d="M222.236,237.762h3.076l-0.251,2.045c-0.19,1.55-1.63,2.632-3.172,2.383l-1.118-0.18
				L222.236,237.762z"/>
			<path style="opacity:0.2;" d="M222.236,237.762h3.076l-0.251,2.045c-0.19,1.55-1.63,2.632-3.172,2.383l-1.118-0.18
				L222.236,237.762z"/>
		</g>
		<path style="fill:#FFB573;" d="M270.141,233.08l-2.881,6.446l-5.96,4.254c-0.777,0.555-1.128,1.532-0.883,2.454l0,0
			c0.171,0.639,0.609,1.174,1.203,1.466l3.226,1.585c1.032,0.507,2.279,0.171,2.917-0.786l2.236-3.358
			c0.364-0.547,0.612-1.164,0.727-1.811l0.294-1.655l4.004-6.543L270.141,233.08z"/>
		<path style="opacity:0.1;" d="M264.426,189.42l-2.839,1.318c0,0-3.124,8.237,0.955,19.183c1.035-6.951,2.658-13.637,4.068-18.719
			L264.426,189.42z"/>
		<path style="fill:#407BFF;" d="M247.221,192.088c5.003-1.603,8.143,0.408,8.143,0.408c2.039-5.976,0.643-8.764,0.311-11.364
			l-1.737-0.122c-0.809-0.057-1.6,0.262-2.128,0.878c-2.483,2.895-9.259,12.437-9.259,30.385c0,4.552,0.084,9.022,0.217,13.253
			c2.473-19.566,8.789-26.876,8.789-26.876C250.991,193.961,247.221,192.088,247.221,192.088z"/>
		<path style="fill:#407BFF;" d="M239.38,180.923h-1.603c-2.857,1.659-6.758,4.554-7.923,8.497c0,0,1.864-1.026,3.498,0.732
			c0,0-3.059,1.318-5.256,4.981c0,0-0.241,13.156,1.467,24.021c0.095-1.839,0.192-3.737,0.29-5.71
			c1.011-20.224,7.192-28.556,10.019-31.34C240.314,181.669,240,180.923,239.38,180.923z"/>
		<path style="opacity:0.2;" d="M247.221,192.088c5.003-1.603,8.143,0.408,8.143,0.408c2.039-5.976,0.643-8.764,0.311-11.364
			l-1.737-0.122c-0.809-0.057-1.6,0.262-2.128,0.878c-2.483,2.895-9.259,12.437-9.259,30.385c0,4.552,0.084,9.022,0.217,13.253
			c2.473-19.566,8.789-26.876,8.789-26.876C250.991,193.961,247.221,192.088,247.221,192.088z"/>
		<path style="opacity:0.2;" d="M239.38,180.923h-1.603c-2.857,1.659-6.758,4.554-7.923,8.497c0,0,1.864-1.026,3.498,0.732
			c0,0-3.059,1.318-5.256,4.981c0,0-0.241,13.156,1.467,24.021c0.095-1.839,0.192-3.737,0.29-5.71
			c1.011-20.224,7.192-28.556,10.019-31.34C240.314,181.669,240,180.923,239.38,180.923z"/>
		<path style="fill:#407BFF;" d="M266.729,182.496c0,0,3.703,0.185,10.295,14.687c6.592,14.503,9.229,24.542-3.369,41.276
			l-5.493-2.603c0,0,5.64-13.331,5.347-20.069c-0.293-6.739-6.545-13.45-9.688-17.73C261.648,195.1,259.07,190.076,266.729,182.496z
			"/>
		<path style="opacity:0.4;" d="M242.792,274.083c2.175,32.895,0.111,47.833-1.415,53.994c2.37-0.098,4.947-0.253,7.729-0.474
			c-0.723-19.07-4.526-44.363-5.984-53.521H242.792z"/>
		<path style="fill:#263238;" d="M239.133,164.95c-0.338,0.001-0.675-0.028-1.008-0.088c-0.096-0.016-0.161-0.106-0.145-0.202
			c0-0.002,0.001-0.004,0.001-0.006c0.016-0.094,0.105-0.158,0.2-0.144c1.49,0.292,3.029-0.138,4.152-1.16
			c0.066-0.073,0.179-0.078,0.252-0.012c0.073,0.066,0.078,0.179,0.012,0.252C241.661,164.475,240.42,164.962,239.133,164.95z"/>
	</g>
</g>
</svg>
