<?xml version="1.0" encoding="UTF-8"?>
<svg version="1.1" xmlns="http://www.w3.org/2000/svg" width="307" height="307">
<path d="M0 0 C101.31 0 202.62 0 307 0 C307 101.31 307 202.62 307 307 C205.69 307 104.38 307 0 307 C0 205.69 0 104.38 0 0 Z " fill="#F6F6F7" transform="translate(0,0)"/>
<path d="M0 0 C8.0286702 6.90907583 13.2433662 15.46466299 14.30078125 26.16015625 C14.59979248 36.84587332 11.16188683 46.6544854 4.0625 54.75 C1.24342634 57.17407869 -1.62385032 59.06950623 -4.9375 60.75 C-5.59540527 61.09562988 -6.25331055 61.44125977 -6.93115234 61.79736328 C-14.5662658 65.37538394 -21.75537046 65.2142712 -30.0625 65 C-31.41403576 64.97988593 -32.76560074 64.9616439 -34.1171875 64.9453125 C-37.39093831 64.89854463 -40.66431638 64.82681526 -43.9375 64.75 C-43.9375 70.03 -43.9375 75.31 -43.9375 80.75 C-48.8875 80.75 -53.8375 80.75 -58.9375 80.75 C-59.02829435 73.2301322 -59.10149828 65.71047214 -59.14474869 58.19018745 C-59.16551927 54.69722053 -59.19364006 51.20465186 -59.23925781 47.71191406 C-59.29150946 43.68551061 -59.31053198 39.65951773 -59.328125 35.6328125 C-59.34877014 34.39387238 -59.36941528 33.15493225 -59.39068604 31.87844849 C-59.39351766 20.8146484 -56.59381833 11.91448105 -48.9375 3.75 C-34.95415931 -8.95748843 -15.91446771 -11.7081185 0 0 Z " fill="#0E98F9" transform="translate(175.9375,134.25)"/>
<path d="M0 0 C5.91828663 3.41439613 11.12891367 7.13743166 13.25 13.875 C14.08647492 21.27780306 13.84511428 27.78117153 9.25 33.875 C5.26462637 38.14426326 0.97498985 40.67782887 -4.88793945 41.10205078 C-6.03480225 41.09157715 -7.18166504 41.08110352 -8.36328125 41.0703125 C-9.61044922 41.06386719 -10.85761719 41.05742187 -12.14257812 41.05078125 C-14.08293945 41.02564453 -14.08293945 41.02564453 -16.0625 41 C-17.37541016 40.99097656 -18.68832031 40.98195312 -20.04101562 40.97265625 C-23.27752913 40.94911797 -26.51367149 40.9162352 -29.75 40.875 C-29.92534031 36.37549782 -30.03121079 31.87688227 -30.125 27.375 C-30.17527344 26.1065625 -30.22554687 24.838125 -30.27734375 23.53125 C-30.38763316 16.4727279 -30.17400971 11.78462417 -25.3605957 6.40209961 C-24.82909912 5.89815674 -24.29760254 5.39421387 -23.75 4.875 C-23.21656982 4.36525635 -22.68313965 3.8555127 -22.13354492 3.33032227 C-15.73337538 -2.34379852 -7.95530321 -2.38659096 0 0 Z " fill="#F4F6F7" transform="translate(161.75,143.125)"/>
<path d="M0 0 C4.34925493 2.17462747 7.5173806 4.79864409 10 9 C10.62409585 14.61686269 10.18169427 18.1726018 7 23 C2.57796435 27.09038297 -0.86375581 28.37770862 -6.94140625 28.27734375 C-11.66805745 27.64054634 -14.38457248 24.71260028 -17.375 21.25 C-19.36617451 17.26765099 -19.86437141 14.36551215 -19 10 C-14.59620283 1.51861286 -9.36256513 -1.48779125 0 0 Z " fill="#1097F7" transform="translate(158,92)"/>
<path d="M0 0 C1.00631091 3.13074506 0.8555772 4.8690481 0 8 C-0.11325854 9.89335853 -0.17595145 11.79000785 -0.20532227 13.68652344 C-0.22526749 14.82740417 -0.24521271 15.96828491 -0.26576233 17.14373779 C-0.28247482 18.36989807 -0.29918732 19.59605835 -0.31640625 20.859375 C-0.33718735 22.11888977 -0.35796844 23.37840454 -0.37937927 24.67608643 C-0.43366302 28.01658871 -0.48392069 31.35710222 -0.53222656 34.69769287 C-0.58255704 38.10971393 -0.6381827 41.52164823 -0.69335938 44.93359375 C-0.80045117 51.62232876 -0.90174576 58.31112957 -1 65 C2.63 65 6.26 65 10 65 C10 60.05 10 55.1 10 50 C12.94705258 48.52647371 15.6552449 48.79640676 18.94140625 48.71875 C19.96571999 48.69113586 19.96571999 48.69113586 21.01072693 48.66296387 C23.93692188 48.58418998 26.8633476 48.51640015 29.78979492 48.44775391 C31.92378516 48.39613848 34.05757072 48.33885607 36.19140625 48.28125 C38.11255249 48.23581055 38.11255249 48.23581055 40.07250977 48.18945312 C42.8894805 48.33050806 42.8894805 48.33050806 44 47 C45.66617115 46.95936168 47.33388095 46.957279 49 47 C44.15888886 50.97662701 40.45602817 51.12480714 34.265625 51.09765625 C32.97011719 51.09443359 31.67460937 51.09121094 30.33984375 51.08789062 C28.97656183 51.07953598 27.61328058 51.07107104 26.25 51.0625 C24.87109535 51.05748168 23.49218896 51.05291935 22.11328125 51.04882812 C18.74216882 51.03704102 15.3710789 51.01910561 12 51 C12 56.28 12 61.56 12 67 C7.05 67 2.1 67 -3 67 C-3.06799833 59.44556005 -3.12294382 51.89123546 -3.15543652 44.33656311 C-3.17103791 40.82793736 -3.19217364 37.31953334 -3.22631836 33.81103516 C-3.26539753 29.76983612 -3.2797548 25.72886702 -3.29296875 21.6875 C-3.31619453 19.81360596 -3.31619453 19.81360596 -3.33988953 17.90185547 C-3.3411762 11.19788045 -2.86976722 6.0903941 0 0 Z " fill="#3E9DE0" transform="translate(120,148)"/>
<path d="M0 0 C1.2065625 0.0309375 1.2065625 0.0309375 2.4375 0.0625 C-2.40361114 4.03912701 -6.10647183 4.18730714 -12.296875 4.16015625 C-13.59238281 4.15693359 -14.88789063 4.15371094 -16.22265625 4.15039062 C-17.58593817 4.14203598 -18.94921942 4.13357104 -20.3125 4.125 C-21.69140465 4.11998168 -23.07031104 4.11541935 -24.44921875 4.11132812 C-27.82035659 4.09954093 -31.19140628 4.08308635 -34.5625 4.0625 C-34.5625 3.4025 -34.5625 2.7425 -34.5625 2.0625 C-33.62865479 2.03744385 -32.69480957 2.0123877 -31.73266602 1.98657227 C-28.27924811 1.89163072 -24.8260104 1.79238742 -21.37280273 1.69018555 C-19.87610731 1.64678187 -18.37936061 1.60511087 -16.88256836 1.56518555 C-14.73535688 1.50761384 -12.58840479 1.44388284 -10.44140625 1.37890625 C-9.1479126 1.34224854 -7.85441895 1.30559082 -6.52172852 1.26782227 C-3.29974294 1.04426894 -3.09960949 0.07560023 0 0 Z " fill="#3499DF" transform="translate(166.5625,194.9375)"/>
<path d="M0 0 C1.125 3.75 1.125 3.75 0 6 C-0.15306901 7.81171098 -0.24946661 9.6283794 -0.31640625 11.4453125 C-0.35451416 12.41484863 -0.39262207 13.38438477 -0.43188477 14.38330078 C-0.47498779 15.61806152 -0.51809082 16.85282227 -0.5625 18.125 C-0.706875 22.04375 -0.85125 25.9625 -1 30 C7.91 30 16.82 30 26 30 C26 30.33 26 30.66 26 31 C16.76 31 7.52 31 -2 31 C-2.04125 26.441875 -2.0825 21.88375 -2.125 17.1875 C-2.14320801 15.75301514 -2.16141602 14.31853027 -2.18017578 12.84057617 C-2.1851709 11.71111572 -2.19016602 10.58165527 -2.1953125 9.41796875 C-2.20578613 8.26063232 -2.21625977 7.1032959 -2.22705078 5.91088867 C-2 3 -2 3 0 0 Z " fill="#DFFAFD" transform="translate(134,153)"/>
<path d="M0 0 C0.66 0 1.32 0 2 0 C4.09521416 5.18775026 4.38529058 9.80162255 4.375 15.3125 C4.37411377 16.15611084 4.37322754 16.99972168 4.37231445 17.86889648 C4.25975601 23.77050144 3.75881457 29.18519739 0 34 C-0.99 34.66 -1.98 35.32 -3 36 C-1 30 -1 30 -0.19921875 27.984375 C3.37967791 18.55372787 2.34081067 9.6349439 0 0 Z " fill="#DDF8FE" transform="translate(187,148)"/>
<path d="M0 0 C0.66 0 1.32 0 2 0 C1.835 0.495 1.67 0.99 1.5 1.5 C0.44236954 6.7881523 0.25084918 10.52944469 2.6875 15.3125 C6.94543456 20.26091043 10.56073171 21.36869919 17 22 C17 22.33 17 22.66 17 23 C13.7 23 10.4 23 7 23 C7 22.34 7 21.68 7 21 C6.401875 20.9175 5.80375 20.835 5.1875 20.75 C1.6120935 19.52414634 0.51409508 16.97407488 -1.1875 13.75 C-2.30694834 9.96109793 -2.2552527 6.95641689 -2 3 C-1.34 2.01 -0.68 1.02 0 0 Z " fill="#DFF8FE" transform="translate(139,98)"/>
<path d="M0 0 C0.33 0 0.66 0 1 0 C1 2.97 1 5.94 1 9 C0.34 9 -0.32 9 -1 9 C-1 9.66 -1 10.32 -1 11 C-3.49064888 11.68707555 -5.37886292 12 -8 12 C-8.66 11.34 -9.32 10.68 -10 10 C-9.071875 9.5875 -8.14375 9.175 -7.1875 8.75 C-2.97809685 6.43895513 -1.50099423 4.50298268 0 0 Z " fill="#DBF2FC" transform="translate(167,109)"/>
<path d="M0 0 C1.72880982 -0.05449838 3.45812712 -0.09301688 5.1875 -0.125 C6.15042969 -0.14820312 7.11335937 -0.17140625 8.10546875 -0.1953125 C11.12812778 0.0086456 13.26769985 0.73125368 16 2 C12.9865831 2.88467285 10.38294847 3.07982034 7.25 3 C2.72834335 2.94633048 -1.52984201 3.33775437 -6 4 C-5.67 3.34 -5.34 2.68 -5 2 C-3.35 2 -1.7 2 0 2 C0 1.34 0 0.68 0 0 Z " fill="#E1F8FE" transform="translate(146,125)"/>
<path d="M0 0 C3.00130824 0.61390396 5.28468238 1.16229766 7.32421875 3.55078125 C10.14843939 8.17853929 10.14843939 8.17853929 9.59765625 11.2265625 C9.40042969 11.81179687 9.20320312 12.39703125 9 13 C8.60167969 12.39671875 8.20335937 11.7934375 7.79296875 11.171875 C7.26316406 10.37265625 6.73335937 9.5734375 6.1875 8.75 C5.66542969 7.96109375 5.14335937 7.1721875 4.60546875 6.359375 C3.12865878 4.18907519 1.59310127 2.08586232 0 0 Z " fill="#DBF8FE" transform="translate(177,135)"/>
<path d="M0 0 C1.28639376 4.22011192 0.55460829 6.85437789 -1 11 C-3.125 13.4375 -3.125 13.4375 -5 15 C-3.33333333 10 -1.66666667 5 0 0 Z " fill="#C3ECFB" transform="translate(189,169)"/>
<path d="M0 0 C0.33 0 0.66 0 1 0 C1.20852314 6.40629424 1.1583195 11.92972642 -1 18 C-1.33 18 -1.66 18 -2 18 C-2.09765625 11.84765625 -2.09765625 11.84765625 -2 10 C-1.67 9.67 -1.34 9.34 -1 9 C-0.76807135 7.48530552 -0.58784762 5.96245438 -0.4375 4.4375 C-0.35371094 3.61121094 -0.26992187 2.78492188 -0.18359375 1.93359375 C-0.12300781 1.29550781 -0.06242188 0.65742188 0 0 Z " fill="#40A3E8" transform="translate(189,158)"/>
<path d="M0 0 C1.32 0 2.64 0 4 0 C4 0.66 4 1.32 4 2 C5.32 2 6.64 2 8 2 C8.33 3.32 8.66 4.64 9 6 C8.1646875 5.566875 8.1646875 5.566875 7.3125 5.125 C4.91505355 3.9586747 2.48403061 2.9660119 0 2 C0 1.34 0 0.68 0 0 Z " fill="#D6F3FD" transform="translate(168,129)"/>
<path d="M0 0 C4.875 0.875 4.875 0.875 6 2 C6.04063832 3.66617115 6.042721 5.33388095 6 7 C1.125 2.25 1.125 2.25 0 0 Z " fill="#D6F2FD" transform="translate(162,94)"/>
</svg>
