<?xml version="1.0" encoding="UTF-8"?>
<svg version="1.1" xmlns="http://www.w3.org/2000/svg" width="1024" height="1024">
<path d="M0 0 C337.92 0 675.84 0 1024 0 C1024 337.92 1024 675.84 1024 1024 C686.08 1024 348.16 1024 0 1024 C0 686.08 0 348.16 0 0 Z " fill="#F6F6F6" transform="translate(0,0)"/>
<path d="M0 0 C4.54582735 3.43690372 8.79331609 7.15935953 13 11 C13.78761719 11.69351563 14.57523438 12.38703125 15.38671875 13.1015625 C36.875343 33.08559726 49.05310624 63.37676582 50.2890625 92.375 C51.06772462 124.70516539 41.72883906 155.7201068 19.26171875 179.63671875 C18.51535156 180.41660156 17.76898437 181.19648437 17 182 C16.32582031 182.74894531 15.65164063 183.49789062 14.95703125 184.26953125 C-3.49678011 204.03899895 -33.17072468 216.22123039 -59.94485474 217.25961304 C-65.3400214 217.37971436 -70.73306371 217.33884179 -76.12890625 217.29296875 C-78.10000786 217.28735674 -80.07111373 217.28309426 -82.04222107 217.28010559 C-87.16970874 217.26878295 -92.29693163 217.23942788 -97.42431641 217.20599365 C-103.60870646 217.16954838 -109.79318625 217.15607157 -115.9776535 217.13863373 C-125.31861846 217.10978005 -134.65900523 217.05220593 -144 217 C-144 234.16 -144 251.32 -144 269 C-159.84 269 -175.68 269 -192 269 C-192.04523182 245.52920656 -192.08203855 222.05844868 -192.10362434 198.58762264 C-192.11391556 187.68852612 -192.1279345 176.7894587 -192.15087891 165.89038086 C-192.17087896 156.38536212 -192.18373208 146.88036446 -192.18817699 137.37532526 C-192.1907732 132.3473932 -192.19683009 127.31952145 -192.21146011 122.29160881 C-192.22514878 117.54827631 -192.22920009 112.80502831 -192.22621536 108.06167793 C-192.22676052 106.33124963 -192.23067017 104.60081818 -192.23841095 102.8704071 C-192.38816734 67.63109558 -181.34902367 38.0832265 -156.875 12.5 C-115.90030467 -27.62459792 -46.85940103 -33.55053578 0 0 Z " fill="#0997FD" transform="translate(583,446)"/>
<path d="M0 0 C1.53598817 1.31584655 3.05834006 2.64788511 4.5625 4 C5.17351562 4.51820313 5.78453125 5.03640625 6.4140625 5.5703125 C19.80855219 17.74156112 27.64225662 36.94744757 28.7265625 54.68359375 C29.24009988 72.2605776 23.43323914 87.41683272 12.5625 101 C11.76392578 102.06347656 11.76392578 102.06347656 10.94921875 103.1484375 C4.00788251 111.86386216 -5.64060322 117.48631317 -15.6875 121.9375 C-16.32421631 122.21988525 -16.96093262 122.50227051 -17.61694336 122.79321289 C-25.34452894 126.03548006 -32.9124864 127.3057929 -41.26196289 127.22705078 C-42.09233063 127.22734283 -42.92269836 127.22763489 -43.77822876 127.22793579 C-46.48898223 127.22655626 -49.19945154 127.21106083 -51.91015625 127.1953125 C-53.80301259 127.19157746 -55.69587088 127.18873281 -57.58872986 127.18673706 C-62.54529253 127.17913926 -67.50173603 127.15952425 -72.45825195 127.1373291 C-77.52618803 127.11678726 -82.59414357 127.10771758 -87.66210938 127.09765625 C-97.58729164 127.0762744 -107.51238587 127.04218548 -117.4375 127 C-117.5308116 116.97609146 -117.60157173 106.95228884 -117.64474869 96.92803192 C-117.66548754 92.27168772 -117.69354953 87.615644 -117.73925781 82.95947266 C-117.78321106 78.45309054 -117.80673966 73.94699461 -117.81700897 69.44041443 C-117.82431273 67.73428349 -117.83857058 66.02816547 -117.86042023 64.32215881 C-118.1177643 43.36603498 -113.32212459 25.28903519 -99.4375 9 C-98.695 7.989375 -97.9525 6.97875 -97.1875 5.9375 C-73.19001436 -22.17605923 -27.57461432 -21.5257201 0 0 Z " fill="#F5F6F7" transform="translate(556.4375,488)"/>
<path d="M0 0 C9.40958283 8.19453159 16.27350215 17.36878329 18.2265625 29.953125 C19.1973726 44.34021241 17.2021329 56.26515695 8.2265625 67.953125 C7.6490625 68.819375 7.0715625 69.685625 6.4765625 70.578125 C-2.23003578 79.76842319 -13.97461914 84.94190101 -26.52612305 85.29663086 C-40.64833499 85.4662394 -52.19915039 83.06214348 -62.7734375 72.953125 C-63.70929688 72.05980469 -63.70929688 72.05980469 -64.6640625 71.1484375 C-74.45782553 60.88627711 -78.37228606 48.03925177 -78.0859375 34.09765625 C-76.89738944 22.13789137 -71.5536999 10.76883262 -62.75 2.546875 C-45.12370166 -11.66563433 -18.68301565 -13.78859183 0 0 Z " fill="#0A97FD" transform="translate(541.7734375,315.046875)"/>
<path d="M0 0 C1.14027163 3.35959226 0.84181003 5.24180716 -0.3125 8.5625 C-4.25954299 19.98004386 -4.30498574 31.48621794 -4.31884766 43.41479492 C-4.32816005 45.25876295 -4.33833065 47.10272681 -4.34928894 48.94668579 C-4.37645519 53.92313962 -4.39169846 58.89956535 -4.40471697 63.8760736 C-4.42040636 69.08776917 -4.44717792 74.29940785 -4.4727478 79.51106262 C-4.51943311 89.36693849 -4.55622668 99.22282519 -4.58942068 109.07875472 C-4.62771467 120.30495001 -4.67710567 131.53108802 -4.72740483 142.75723493 C-4.83057221 165.83811949 -4.91841719 188.91902836 -5 212 C9.52 212 24.04 212 39 212 C38.96519531 208.41382813 38.93039062 204.82765625 38.89453125 201.1328125 C38.87115524 197.6710693 38.85292748 194.2093348 38.83520508 190.74755859 C38.82009055 188.33606043 38.79959847 185.92458986 38.77368164 183.51318359 C38.73741575 180.05299072 38.72030044 176.59316029 38.70703125 173.1328125 C38.69154739 172.04944611 38.67606354 170.96607971 38.66011047 169.84988403 C38.65988388 168.8489975 38.65965729 167.84811096 38.65942383 166.81689453 C38.65276199 165.93309113 38.64610016 165.04928772 38.63923645 164.13870239 C38.75828842 163.4329306 38.87734039 162.72715881 39 162 C42.98466739 159.34355508 46.43778082 159.73506409 51.0612793 159.77294922 C51.98830658 159.77265717 52.91533386 159.77236511 53.87045288 159.77206421 C56.93846963 159.77345896 60.00624435 159.78902707 63.07421875 159.8046875 C65.19985318 159.80841711 67.32548933 159.81126433 69.4511261 159.81326294 C75.04892717 159.82090346 80.64662465 159.8405556 86.24438477 159.8626709 C91.95522663 159.88312027 97.66608521 159.89226271 103.37695312 159.90234375 C114.58468096 159.92380105 125.79233187 159.9579421 137 160 C137 160.33 137 160.66 137 161 C131.62952938 161.90047241 126.47488628 162.13775745 121.03540039 162.11352539 C120.16631042 162.11367142 119.29722046 162.11381744 118.40179443 162.1139679 C115.55038899 162.11327536 112.69905018 162.105514 109.84765625 162.09765625 C107.86225927 162.09578973 105.87686184 162.09436693 103.89146423 162.09336853 C98.68173945 162.08956181 93.47204281 162.07974735 88.2623291 162.06866455 C82.00304496 162.05660588 75.74375137 162.0520394 69.48445892 162.04621124 C59.98961974 162.03653455 50.49484225 162.01736508 41 162 C41 179.16 41 196.32 41 214 C25.16 214 9.32 214 -7 214 C-7.04523182 190.52920656 -7.08203855 167.05844868 -7.10362434 143.58762264 C-7.11391556 132.68852612 -7.1279345 121.7894587 -7.15087891 110.89038086 C-7.17087896 101.38536212 -7.18373208 91.88036446 -7.18817699 82.37532526 C-7.1907732 77.3473932 -7.19683009 72.31952145 -7.21146011 67.29160881 C-7.22514878 62.54827631 -7.22920009 57.80502831 -7.22621536 53.06167793 C-7.22676052 51.33124963 -7.23067017 49.60081818 -7.23841095 47.8704071 C-7.29399506 34.79085959 -6.82698154 21.85014553 -2.9375 9.25 C-2.59589844 8.12078125 -2.25429688 6.9915625 -1.90234375 5.828125 C-1.28116928 3.8812405 -0.64623656 1.93870969 0 0 Z " fill="#218BDB" transform="translate(398,501)"/>
<path d="M0 0 C0.89073845 2.94617616 1.00724231 5.0997378 0.57533264 8.13485718 C-0.31773149 16.01140395 -0.1783745 23.92599172 -0.20532227 31.84228516 C-0.21491554 33.63684304 -0.22492644 35.43139873 -0.23532104 37.22595215 C-0.26221931 42.07229875 -0.28330994 46.91865493 -0.30332303 51.7650342 C-0.32527624 56.83925377 -0.35261902 61.9134443 -0.37937927 66.98764038 C-0.42918048 76.58501855 -0.47416566 86.18241296 -0.51740164 95.77982271 C-0.56688184 106.71094201 -0.62175979 117.64203216 -0.67708123 128.57312322 C-0.79070815 151.04872288 -0.89687635 173.52434952 -1 196 C14.84 196 30.68 196 47 196 C47 178.84 47 161.68 47 144 C53.22746094 143.96261719 59.45492187 143.92523437 65.87109375 143.88671875 C69.84963545 143.85639252 73.82813491 143.82521431 77.80664062 143.79101562 C84.10194593 143.73698167 90.3971677 143.68586277 96.69262695 143.65356445 C101.77620222 143.62728437 106.85949197 143.58671365 111.94288826 143.53681374 C113.86860628 143.52031016 115.79437349 143.50869436 117.7201519 143.50238609 C133.66920988 143.44492888 148.40599005 141.90606602 163.55859375 136.671875 C166 136 166 136 168 137 C167.01 137.33 166.02 137.66 165 138 C165 138.99 165 139.98 165 141 C163.865625 140.979375 162.73125 140.95875 161.5625 140.9375 C158.18424326 140.58422523 158.18424326 140.58422523 157 142 C155.00041636 142.04080783 152.99954746 142.04254356 151 142 C151 142.66 151 143.32 151 144 C150.28972656 144.06058594 149.57945312 144.12117187 148.84765625 144.18359375 C147.92855469 144.26738281 147.00945312 144.35117187 146.0625 144.4375 C145.14597656 144.51871094 144.22945312 144.59992188 143.28515625 144.68359375 C141.03840268 144.76044976 141.03840268 144.76044976 140 146 C137.67566276 146.10030561 135.38103637 146.13618695 133.05615234 146.12939453 C131.96553749 146.13202301 131.96553749 146.13202301 130.85289001 146.13470459 C128.4305487 146.13913117 126.00827966 146.13617808 123.5859375 146.1328125 C121.896942 146.13348633 120.20794659 146.13445702 118.51895142 146.13571167 C114.96282028 146.13719054 111.40671417 146.13503179 107.85058594 146.13037109 C103.33330931 146.12473444 98.8160929 146.12791252 94.29881859 146.13394356 C90.79995286 146.13759642 87.30110084 146.13638811 83.80223465 146.13381577 C82.13998024 146.13315629 80.47772452 146.13393999 78.81547165 146.13629532 C76.46207252 146.1388931 74.10876366 146.13488129 71.75537109 146.12939453 C71.09086441 146.13141876 70.42635773 146.13344299 69.74171448 146.13552856 C62.44316778 146.10467606 55.33366027 145.48891068 48 145 C48 162.49 48 179.98 48 198 C31.17 198 14.34 198 -3 198 C-3.06779755 173.95585803 -3.1230287 149.9117938 -3.15543652 125.86758041 C-3.17088595 114.70270102 -3.19193864 103.53788536 -3.22631836 92.37304688 C-3.25627966 82.638428 -3.27558898 72.9038553 -3.28226548 63.1691916 C-3.28616634 58.01780367 -3.29529371 52.86654781 -3.31719017 47.71520233 C-3.33766173 42.85940627 -3.34381235 38.00379579 -3.33932304 33.14796066 C-3.34014349 31.3727276 -3.34604523 29.59748787 -3.35761642 27.82229233 C-3.41780616 18.1057675 -3.04750858 9.3507038 0 0 Z " fill="#DDFBFE" transform="translate(392,519)"/>
<path d="M0 0 C-0.99 0.33 -1.98 0.66 -3 1 C-3 1.99 -3 2.98 -3 4 C-4.134375 3.979375 -5.26875 3.95875 -6.4375 3.9375 C-9.81575674 3.58422523 -9.81575674 3.58422523 -11 5 C-12.99958364 5.04080783 -15.00045254 5.04254356 -17 5 C-17 5.66 -17 6.32 -17 7 C-17.71027344 7.06058594 -18.42054688 7.12117187 -19.15234375 7.18359375 C-20.07144531 7.26738281 -20.99054688 7.35117187 -21.9375 7.4375 C-22.85402344 7.51871094 -23.77054688 7.59992187 -24.71484375 7.68359375 C-26.96159732 7.76044976 -26.96159732 7.76044976 -28 9 C-30.32433724 9.10030561 -32.61896363 9.13618695 -34.94384766 9.12939453 C-35.67092422 9.13114685 -36.39800079 9.13289917 -37.14710999 9.13470459 C-39.5694513 9.13913117 -41.99172034 9.13617808 -44.4140625 9.1328125 C-46.103058 9.13348633 -47.79205341 9.13445702 -49.48104858 9.13571167 C-53.03717972 9.13719054 -56.59328583 9.13503179 -60.14941406 9.13037109 C-64.66669069 9.12473444 -69.1839071 9.12791252 -73.70118141 9.13394356 C-77.20004714 9.13759642 -80.69889916 9.13638811 -84.19776535 9.13381577 C-85.86001976 9.13315629 -87.52227548 9.13393999 -89.18452835 9.13629532 C-91.53792748 9.1388931 -93.89123634 9.13488129 -96.24462891 9.12939453 C-96.90913559 9.13141876 -97.57364227 9.13344299 -98.25828552 9.13552856 C-105.55683222 9.10467606 -112.66633973 8.48891068 -120 8 C-120 24.83 -120 41.66 -120 59 C-120.33 59 -120.66 59 -121 59 C-121 41.84 -121 24.68 -121 7 C-114.77253906 6.96261719 -108.54507812 6.92523437 -102.12890625 6.88671875 C-98.15036455 6.85639252 -94.17186509 6.82521431 -90.19335938 6.79101562 C-83.89805407 6.73698167 -77.6028323 6.68586277 -71.30737305 6.65356445 C-66.22379778 6.62728437 -61.14050803 6.58671365 -56.05711174 6.53681374 C-54.13139372 6.52031016 -52.20562651 6.50869436 -50.2798481 6.50238609 C-34.33079012 6.44492888 -19.59400995 4.90606602 -4.44140625 -0.328125 C-2 -1 -2 -1 0 0 Z " fill="#BFF1FF" transform="translate(560,656)"/>
<path d="M0 0 C13.06047754 14.84851911 12.991281 43.57253008 12 62 C11.73420697 64.6827809 11.3857593 67.3307945 11 70 C10.67 70 10.34 70 10 70 C9.97494385 68.97527588 9.9498877 67.95055176 9.92407227 66.89477539 C9.83015516 63.10590324 9.72989683 59.31722119 9.62768555 55.52856445 C9.58427703 53.88635697 9.54260642 52.24410261 9.50268555 50.60180664 C9.4451256 48.24611255 9.38139108 45.89065572 9.31640625 43.53515625 C9.29969376 42.79660904 9.28298126 42.05806183 9.26576233 41.2971344 C9.46451987 37.85699373 9.46451987 37.85699373 8 35 C7.80496671 33.29557864 7.615343 31.59034266 7.45483398 29.88232422 C6.72751753 22.31095122 5.197274 15.89584861 2.12109375 8.8671875 C0.9613286 5.90109824 0.41588818 3.14953518 0 0 Z " fill="#2D92DE" transform="translate(621,493)"/>
<path d="M0 0 C1.26976685 -0.00773437 1.26976685 -0.00773437 2.56518555 -0.015625 C17.54399637 0.14838192 17.54399637 0.14838192 21.78515625 3.88549805 C22.18605469 4.35640869 22.58695313 4.82731934 23 5.3125 C15.4068579 4.42663342 15.4068579 4.42663342 13.19238281 3.80541992 C1.34552964 1.14185683 -13.5864551 2.32650902 -25 6.3125 C-26.41460852 6.71562678 -27.83103086 7.11250155 -29.25 7.5 C-30.1575 7.768125 -31.065 8.03625 -32 8.3125 C-32 7.6525 -32 6.9925 -32 6.3125 C-31.01 5.9825 -30.02 5.6525 -29 5.3125 C-29 4.6525 -29 3.9925 -29 3.3125 C-19.3216675 1.32720103 -9.89767398 0.01425793 0 0 Z " fill="#2190E5" transform="translate(512,470.6875)"/>
<path d="M0 0 C0.33 0 0.66 0 1 0 C1.02688151 1.64574566 1.04634123 3.29161413 1.0625 4.9375 C1.07410156 5.85402344 1.08570313 6.77054688 1.09765625 7.71484375 C1 10 1 10 0 11 C-0.12495027 13.463493 -0.18602203 15.90036767 -0.20532227 18.36547852 C-0.21522186 19.13615662 -0.22512146 19.90683472 -0.23532104 20.7008667 C-0.26702701 23.26018147 -0.2917292 25.81951483 -0.31640625 28.37890625 C-0.33696794 30.14868159 -0.35796419 31.91845194 -0.37937927 33.68821716 C-0.43468109 38.3554582 -0.48405446 43.02274414 -0.53222656 47.69006348 C-0.58238253 52.44901546 -0.63809934 57.20790191 -0.69335938 61.96679688 C-0.80104008 71.31114198 -0.90246288 80.6555439 -1 90 C-1.33 90 -1.66 90 -2 90 C-2.04639844 79.29905761 -2.08190737 68.59813927 -2.10362434 57.89711666 C-2.11404888 52.92787554 -2.12818382 47.95870339 -2.15087891 42.98950195 C-2.17265467 38.19141019 -2.18457863 33.39338465 -2.18975449 28.59524727 C-2.19344174 26.76727824 -2.20064201 24.93931273 -2.21146011 23.11137199 C-2.22603794 20.54544191 -2.22797532 17.97978338 -2.22705078 15.41381836 C-2.23424133 14.66287399 -2.24143188 13.91192963 -2.24884033 13.13822937 C-2.23043639 8.39891171 -1.49269993 4.5033994 0 0 Z " fill="#E5F9FE" transform="translate(442,523)"/>
<path d="M0 0 C11.55 0 23.1 0 35 0 C35 0.66 35 1.32 35 2 C37.97 2 40.94 2 44 2 C44 2.66 44 3.32 44 4 C43.38648682 3.9292627 42.77297363 3.85852539 42.14086914 3.78564453 C34.57682411 2.99802597 27.07662482 2.84582473 19.47485352 2.86962891 C17.43693641 2.87500149 15.39923871 2.86964284 13.36132812 2.86328125 C6.17833762 2.87031306 -0.87317293 3.07119576 -8 4 C-6 2 -6 2 -2.875 1.875 C-1.92625 1.91625 -0.9775 1.9575 0 2 C0 1.34 0 0.68 0 0 Z " fill="#C8F2FE" transform="translate(493,423)"/>
<path d="M0 0 C-0.99 0.33 -1.98 0.66 -3 1 C-3 1.99 -3 2.98 -3 4 C-4.134375 3.979375 -5.26875 3.95875 -6.4375 3.9375 C-9.81575674 3.58422523 -9.81575674 3.58422523 -11 5 C-12.99958364 5.04080783 -15.00045254 5.04254356 -17 5 C-17 5.66 -17 6.32 -17 7 C-17.71027344 7.06058594 -18.42054688 7.12117187 -19.15234375 7.18359375 C-20.07144531 7.26738281 -20.99054687 7.35117187 -21.9375 7.4375 C-22.85402344 7.51871094 -23.77054688 7.59992187 -24.71484375 7.68359375 C-26.96159732 7.76044976 -26.96159732 7.76044976 -28 9 C-29.34267413 9.08631874 -30.68974322 9.10706473 -32.03515625 9.09765625 C-32.84404297 9.09443359 -33.65292969 9.09121094 -34.48632812 9.08789062 C-35.33646484 9.07951172 -36.18660156 9.07113281 -37.0625 9.0625 C-37.91650391 9.05798828 -38.77050781 9.05347656 -39.65039062 9.04882812 C-41.76695663 9.03700373 -43.88348685 9.01906769 -46 9 C-43.01374862 7.3160753 -40.57721272 6.664132 -37.17578125 6.32421875 C-36.23694092 6.22077148 -35.29810059 6.11732422 -34.33081055 6.01074219 C-33.33476807 5.90407227 -32.33872559 5.79740234 -31.3125 5.6875 C-22.92029095 4.7142981 -15.07024427 3.21360739 -7.05395508 0.5378418 C-2.1693171 -1.08465855 -2.1693171 -1.08465855 0 0 Z " fill="#D9F6FE" transform="translate(560,656)"/>
<path d="M0 0 C0.65484375 0.45890625 1.3096875 0.9178125 1.984375 1.390625 C16.10113291 10.88155264 29.9076115 12.88859834 46.6015625 10.48046875 C47.39304687 10.32191406 48.18453125 10.16335938 49 10 C48.67 10.99 48.34 11.98 48 13 C43.47928979 13.08751499 38.9587993 13.1405661 34.4375 13.1875 C32.52227539 13.22520508 32.52227539 13.22520508 30.56835938 13.26367188 C23.89159491 13.31569861 18.8857513 13.24046982 13 10 C10.22111387 9.30859478 10.22111387 9.30859478 8 9 C8 8.34 8 7.68 8 7 C7.01 7 6.02 7 5 7 C5 6.34 5 5.68 5 5 C3.68 4.67 2.36 4.34 1 4 C0.67 2.68 0.34 1.36 0 0 Z " fill="#D7F7FE" transform="translate(479,388)"/>
<path d="M0 0 C-0.4125 1.155 -0.825 2.31 -1.25 3.5 C-3.61234788 10.54183124 -5.25625398 17.78602534 -7 25 C-7.33 25 -7.66 25 -8 25 C-8 21.04 -8 17.08 -8 13 C-7.34 13 -6.68 13 -6 13 C-6.33 9.04 -6.66 5.08 -7 1 C-4 0 -4 0 0 0 Z " fill="#0F98FB" transform="translate(447,511)"/>
<path d="M0 0 C0.33 0 0.66 0 1 0 C1.64730577 14.0069777 0.50618894 26.8098576 -9 38 C-9.99 38.495 -9.99 38.495 -11 39 C-11 37.02 -11 35.04 -11 33 C-10.01 32.505 -10.01 32.505 -9 32 C-8.34 32.33 -7.68 32.66 -7 33 C-7 32.01 -7 31.02 -7 30 C-6.34 30 -5.68 30 -5 30 C-4.67 27.69 -4.34 25.38 -4 23 C-3.34 23 -2.68 23 -2 23 C-2 20.36 -2 17.72 -2 15 C-1.34 15 -0.68 15 0 15 C0 10.05 0 5.1 0 0 Z " fill="#258FDD" transform="translate(559,345)"/>
<path d="M0 0 C0.33 0 0.66 0 1 0 C1.31612126 4.00420257 0.7376699 7.1096944 -0.5 10.875 C-1.97752192 15.48180182 -2.35056197 19.17977294 -2 24 C-1.67 24.33 -1.34 24.66 -1 25 C-0.67902249 27.31817089 -0.48779044 29.63779357 -0.28125 31.96875 C-0.20934163 33.99180593 -0.20934163 33.99180593 1 35 C1.04063832 36.66617115 1.042721 38.33388095 1 40 C-3.83452952 35.16547048 -4.20046652 25.58426342 -4.4375 19 C-4.28528565 12.30256856 -2.26033164 6.25627508 0 0 Z " fill="#2892E4" transform="translate(468,333)"/>
<path d="M0 0 C0.66 0.33 1.32 0.66 2 1 C-6.83878505 13.24065421 -6.83878505 13.24065421 -11.3125 14.8125 C-11.869375 14.874375 -12.42625 14.93625 -13 15 C-11.67064278 11.0532555 -10.05426964 8.69284433 -7.0625 5.8125 C-6.02802734 4.80123047 -6.02802734 4.80123047 -4.97265625 3.76953125 C-3 2 -3 2 0 0 Z " fill="#2095EB" transform="translate(484,314)"/>
<path d="M0 0 C3.79964547 3.79964547 4.25421446 7.78375323 4.265625 13 C4.26820313 14.134375 4.27078125 15.26875 4.2734375 16.4375 C4.26570312 17.613125 4.25796875 18.78875 4.25 20 C4.25773438 21.175625 4.26546875 22.35125 4.2734375 23.5625 C4.27085937 24.696875 4.26828125 25.83125 4.265625 27 C4.26224121 28.546875 4.26224121 28.546875 4.25878906 30.125 C3.99067741 33.10356867 3.25012032 35.29864765 2 38 C1.34 38 0.68 38 0 38 C0.144375 37.3915625 0.28875 36.783125 0.4375 36.15625 C2.98642832 24.11964403 2.84118903 11.97358235 0 0 Z " fill="#D0F5FE" transform="translate(557,334)"/>
<path d="M0 0 C1.35230713 0.00519653 1.35230713 0.00519653 2.73193359 0.01049805 C8.8018943 0.10978079 15.01989625 0.25092393 20.4375 3.3125 C21.0975 4.3025 21.7575 5.2925 22.4375 6.3125 C21.36822266 6.00505859 21.36822266 6.00505859 20.27734375 5.69140625 C19.31957031 5.42199219 18.36179687 5.15257812 17.375 4.875 C15.96541016 4.47474609 15.96541016 4.47474609 14.52734375 4.06640625 C8.14189254 2.50838845 2.02926839 2.17726608 -4.5 2.25 C-5.27923828 2.25451172 -6.05847656 2.25902344 -6.86132812 2.26367188 C-8.76175268 2.27533092 -10.66213706 2.29326123 -12.5625 2.3125 C-8.38019842 -0.47570106 -4.91874854 -0.02987816 0 0 Z " fill="#D1F6FE" transform="translate(512.5625,304.6875)"/>
<path d="M0 0 C0.33 1.32 0.66 2.64 1 4 C0.01 4.66 -0.98 5.32 -2 6 C-2.99 7.485 -2.99 7.485 -4 9 C-4.70125 9.639375 -5.4025 10.27875 -6.125 10.9375 C-8.44844853 13.02872873 -8.44844853 13.02872873 -8 17 C-8.66 17 -9.32 17 -10 17 C-10.268125 17.639375 -10.53625 18.27875 -10.8125 18.9375 C-12 21 -12 21 -15 22 C-13.73802743 17.54750191 -12.15447447 14.53994659 -9.1875 11 C-8.47980469 10.14664062 -7.77210938 9.29328125 -7.04296875 8.4140625 C-6.36878906 7.61742187 -5.69460938 6.82078125 -5 6 C-3.99965801 4.79194977 -2.99958962 3.58367284 -2 2.375 C-1.34 1.59125 -0.68 0.8075 0 0 Z " fill="#D8F5FE" transform="translate(462,491)"/>
<path d="M0 0 C0.99 0.33 1.98 0.66 3 1 C2.67 1.66 2.34 2.32 2 3 C3.65 3 5.3 3 7 3 C3.64309635 5.23793576 0.1660716 6.65050338 -3.5625 8.125 C-4.24763672 8.40214844 -4.93277344 8.67929687 -5.63867188 8.96484375 C-10.7466133 11 -10.7466133 11 -13 11 C-13 10.34 -13 9.68 -13 9 C-11.68 9 -10.36 9 -9 9 C-9 8.34 -9 7.68 -9 7 C-7.68 7 -6.36 7 -5 7 C-5 6.34 -5 5.68 -5 5 C-4.34 5 -3.68 5 -3 5 C-2.87625 4.360625 -2.7525 3.72125 -2.625 3.0625 C-2.41875 2.381875 -2.2125 1.70125 -2 1 C-1.34 0.67 -0.68 0.34 0 0 Z " fill="#E1F6FD" transform="translate(469,426)"/>
<path d="M0 0 C3 1 3 1 4.31640625 3.29296875 C5.56282525 6.18825552 6.80103565 9.08470997 8 12 C8.6496875 13.5159375 8.6496875 13.5159375 9.3125 15.0625 C10.32109296 19.37194263 10.15668607 23.59538035 10 28 C9.67 28 9.34 28 9 28 C8.76925781 27.06800781 8.53851562 26.13601563 8.30078125 25.17578125 C6.08080857 16.49770622 3.41380504 8.29666552 0 0 Z " fill="#D1F4FE" transform="translate(621,492)"/>
<path d="M0 0 C0.66 1.32 1.32 2.64 2 4 C1.34 4.556875 0.68 5.11375 0 5.6875 C-2.41739276 8.48261038 -2.09106567 9.44843882 -2 13 C-3.3125 14.8125 -3.3125 14.8125 -5 16 C-7 16 -9 16 -11 16 C-10.45730469 15.34773437 -9.91460938 14.69546875 -9.35546875 14.0234375 C-3.96877562 7.4503387 -3.96877562 7.4503387 0 0 Z " fill="#1E92E8" transform="translate(578,574)"/>
<path d="M0 0 C0.33 1.32 0.66 2.64 1 4 C1.66 4 2.32 4 3 4 C4.65625 6.4140625 4.65625 6.4140625 6.5 9.625 C7.1084375 10.66914063 7.716875 11.71328125 8.34375 12.7890625 C9.90703599 15.8197726 11.02095439 18.73977811 12 22 C11.34 22 10.68 22 10 22 C9.63648438 21.29875 9.27296875 20.5975 8.8984375 19.875 C5.99913274 14.40349153 3.00485222 9.37265107 -0.8984375 4.55859375 C-2 3 -2 3 -2 1 C-1.34 0.67 -0.68 0.34 0 0 Z " fill="#D0F3FE" transform="translate(610,469)"/>
<path d="M0 0 C1.65 0 3.3 0 5 0 C-2.17687164 5.83014276 -10.87563174 8.54378159 -20 9 C-17.57790043 6.07595216 -15.70640803 5.50559528 -12 4.9375 C-8.51270117 4.39260956 -7.02054387 4.01369592 -4 2 C-2.68 2 -1.36 2 0 2 C0 1.34 0 0.68 0 0 Z " fill="#D5F7FE" transform="translate(544,605)"/>
<path d="M0 0 C0.66 0.33 1.32 0.66 2 1 C-0.1308226 4.19623391 -1.95686454 5.10708847 -5.2578125 6.89453125 C-7.7746307 8.49152576 -9.27626724 10.59908652 -11 13 C-13.23622238 15.60892611 -14.67861675 16.26493977 -18 17 C-12.74042385 10.52667551 -6.96692815 4.64461877 0 0 Z " fill="#2A92DF" transform="translate(440,447)"/>
<path d="M0 0 C0.33 0.99 0.66 1.98 1 3 C1.66 3 2.32 3 3 3 C5.125 4.875 5.125 4.875 7 7 C7 7.66 7 8.32 7 9 C7.99 9 8.98 9 10 9 C13.22265625 14.2734375 13.22265625 14.2734375 14 16 C13.67 16.66 13.34 17.32 13 18 C11.24797712 16.10600285 9.49835022 14.20988262 7.75 12.3125 C7.25886719 11.78205078 6.76773438 11.25160156 6.26171875 10.70507812 C3.37269261 7.56566972 0.62459433 4.36822939 -2 1 C-1.34 0.67 -0.68 0.34 0 0 Z " fill="#DCF9FE" transform="translate(594,452)"/>
<path d="M0 0 C0.66 0.33 1.32 0.66 2 1 C0.25156882 2.12743666 -1.4988094 3.2518542 -3.25 4.375 C-4.22453125 5.00148438 -5.1990625 5.62796875 -6.203125 6.2734375 C-8.43521615 7.65134852 -10.63087422 8.88312642 -13 10 C-12.67 8.02 -12.34 6.04 -12 4 C-8 2.66666667 -4 1.33333333 0 0 Z " fill="#D4F7FF" transform="translate(452,438)"/>
<path d="M0 0 C7.04007955 0.9973446 13.43901392 2.2241982 20 5 C16.79984144 6.06671952 15.11455706 5.94845472 11.8125 5.5625 C10.91144531 5.46066406 10.01039063 5.35882813 9.08203125 5.25390625 C8.39496094 5.17011719 7.70789063 5.08632813 7 5 C7 4.01 7 3.02 7 2 C4.69 2 2.38 2 0 2 C0 1.34 0 0.68 0 0 Z " fill="#2793E5" transform="translate(536,427)"/>
<path d="M0 0 C2.83339965 -0.02724423 5.66653117 -0.04695589 8.5 -0.0625 C9.29148437 -0.07087891 10.08296875 -0.07925781 10.8984375 -0.08789062 C24.5359589 -0.14378211 24.5359589 -0.14378211 28 2.5625 C28.33 3.036875 28.66 3.51125 29 4 C21.44526816 3.11861462 21.44526816 3.11861462 19.12304688 2.5 C17.00695772 2.00163862 15.0590008 1.79858338 12.890625 1.68359375 C12.13652344 1.64169922 11.38242187 1.59980469 10.60546875 1.55664062 C9.43951172 1.49766602 9.43951172 1.49766602 8.25 1.4375 C7.06083984 1.37272461 7.06083984 1.37272461 5.84765625 1.30664062 C3.89862185 1.20097009 1.94933252 1.10002034 0 1 C0 0.67 0 0.34 0 0 Z " fill="#3C96E0" transform="translate(506,472)"/>
<path d="M0 0 C1.37562854 1.28965176 2.70766393 2.62689293 4 4 C4 4.66 4 5.32 4 6 C4.99 5.67 5.98 5.34 7 5 C8.5 6.25 8.5 6.25 10 8 C10 10.33333333 10 12.66666667 10 15 C0 3.95890411 0 3.95890411 0 0 Z " fill="#2290E3" transform="translate(469,373)"/>
<path d="M0 0 C0.26554687 0.53496094 0.53109375 1.06992187 0.8046875 1.62109375 C1.69362294 3.39024957 2.5969683 5.15217975 3.5078125 6.91015625 C4.30832031 8.47056641 4.30832031 8.47056641 5.125 10.0625 C5.93324219 11.62677734 5.93324219 11.62677734 6.7578125 13.22265625 C8 16 8 16 8 19 C7.773125 18.360625 7.54625 17.72125 7.3125 17.0625 C6.14749104 14.72806339 6.14749104 14.72806339 3.375 14.25 C2.59125 14.1675 1.8075 14.085 1 14 C1.020625 13.030625 1.04125 12.06125 1.0625 11.0625 C1.35618499 8.12534105 1.35618499 8.12534105 0 7 C-0.04092937 4.66702567 -0.04241723 2.33294775 0 0 Z " fill="#D7F6FE" transform="translate(465,364)"/>
<path d="M0 0 C1.65 0 3.3 0 5 0 C1.50794062 3.59476701 -2.04033675 6.92026191 -6 10 C-6.66 10 -7.32 10 -8 10 C-8 9.34 -8 8.68 -8 8 C-7.01 7.34 -6.02 6.68 -5 6 C-4.67 5.01 -4.34 4.02 -4 3 C-1.9375 2.3125 -1.9375 2.3125 0 2 C0 1.34 0 0.68 0 0 Z " fill="#D6F3FD" transform="translate(560,593)"/>
<path d="M0 0 C0.66 0.33 1.32 0.66 2 1 C1.01 1.33 0.02 1.66 -1 2 C-1 2.66 -1 3.32 -1 4 C-1.79664063 4.36351562 -1.79664063 4.36351562 -2.609375 4.734375 C-6.73992624 6.69412559 -9.97110547 8.46628972 -13 12 C-13.99 11.67 -14.98 11.34 -16 11 C-10.89341984 6.87768132 -5.91301263 2.89616945 0 0 Z " fill="#D8F8FF" transform="translate(480,479)"/>
<path d="M0 0 C0.66 0.33 1.32 0.66 2 1 C1.67 1.66 1.34 2.32 1 3 C1.66 3.33 2.32 3.66 3 4 C1.8125 5.5625 1.8125 5.5625 0 7 C-2.375 6.6875 -2.375 6.6875 -5 6 C-6.6662553 5.9629721 -8.33401319 5.95240038 -10 6 C-6.71739341 3.81159561 -3.49181927 1.84114107 0 0 Z " fill="#E2F8FC" transform="translate(539,392)"/>
<path d="M0 0 C0.99 0.66 1.98 1.32 3 2 C3 3.32 3 4.64 3 6 C1.68 5.67 0.36 5.34 -1 5 C-1.33 6.32 -1.66 7.64 -2 9 C-3.65 7.02 -5.3 5.04 -7 3 C-6.21625 3.061875 -5.4325 3.12375 -4.625 3.1875 C-3.75875 3.125625 -2.8925 3.06375 -2 3 C-1.34 2.01 -0.68 1.02 0 0 Z " fill="#E7F9FC" transform="translate(549,312)"/>
<path d="M0 0 C5.64913063 1.65707832 10.26300637 3.47762012 15 7 C13.02 7.99 13.02 7.99 11 9 C9 7 9 7 8 4 C6.68 4 5.36 4 4 4 C4 3.34 4 2.68 4 2 C2.68 2 1.36 2 0 2 C0 1.34 0 0.68 0 0 Z " fill="#2793E5" transform="translate(528,309)"/>
<path d="M0 0 C0.99 0 1.98 0 3 0 C1.89061647 6.30596952 0.06802099 11.37529486 -3 17 C-3.33 17 -3.66 17 -4 17 C-4 15.35 -4 13.7 -4 12 C-3.34 12 -2.68 12 -2 12 C-1.34 8.04 -0.68 4.08 0 0 Z " fill="#D4F6FD" transform="translate(579,563)"/>
<path d="M0 0 C3.375 0.5625 3.375 0.5625 7 2 C8.82196594 6.09942337 9.27141789 8.75570792 8 13 C7.59007812 12.31292969 7.18015625 11.62585938 6.7578125 10.91796875 C6.21898437 10.01691406 5.68015625 9.11585938 5.125 8.1875 C4.32449219 6.84751953 4.32449219 6.84751953 3.5078125 5.48046875 C2.38116908 3.62705276 1.20313389 1.80470083 0 0 Z " fill="#E3F9FE" transform="translate(548,321)"/>
<path d="M0 0 C0.99 0.33 1.98 0.66 3 1 C1.02 4.63 -0.96 8.26 -3 12 C-3.33 10.68 -3.66 9.36 -4 8 C-4.66 7.01 -5.32 6.02 -6 5 C-5.34 5 -4.68 5 -4 5 C-3.67 4.34 -3.34 3.68 -3 3 C-2.67 3.33 -2.34 3.66 -2 4 C-1.34 2.68 -0.68 1.36 0 0 Z " fill="#DCF5FE" transform="translate(471,323)"/>
<path d="M0 0 C5.26170694 1.41167747 8.72171358 3.74850232 13 7 C11 8 11 8 7.875 7.0625 C6.92625 6.711875 5.9775 6.36125 5 6 C5 5.01 5 4.02 5 3 C3.68 3 2.36 3 1 3 C0.67 2.01 0.34 1.02 0 0 Z " fill="#2693E4" transform="translate(571,440)"/>
<path d="M0 0 C0.66 0.33 1.32 0.66 2 1 C1.67 2.32 1.34 3.64 1 5 C0.071875 5.12375 -0.85625 5.2475 -1.8125 5.375 C-5.13925235 5.81533082 -5.13925235 5.81533082 -8 8 C-10.1875 7.625 -10.1875 7.625 -12 7 C-11.21753906 6.57847656 -10.43507813 6.15695312 -9.62890625 5.72265625 C-8.61699219 5.17480469 -7.60507812 4.62695312 -6.5625 4.0625 C-5.55316406 3.51722656 -4.54382813 2.97195313 -3.50390625 2.41015625 C-1.13329507 1.22300532 -1.13329507 1.22300532 0 0 Z " fill="#2590E2" transform="translate(555,601)"/>
<path d="M0 0 C0.33 0 0.66 0 1 0 C1.29036649 3.38115651 1.44908891 6.62919149 1 10 C-1.5 12.625 -1.5 12.625 -4 14 C-3.52188823 12.22888156 -3.0424722 10.45811517 -2.5625 8.6875 C-2.29566406 7.70136719 -2.02882813 6.71523438 -1.75390625 5.69921875 C-1.21920575 3.78482474 -0.62855462 1.88566385 0 0 Z " fill="#D6F4FE" transform="translate(628,578)"/>
<path d="M0 0 C0.66 0 1.32 0 2 0 C0.25192871 5.46737191 -1.65794081 10.75824848 -4 16 C-5.16344173 12.50967481 -4.76539718 11.43292372 -3.6875 8 C-3.42324219 7.13375 -3.15898437 6.2675 -2.88671875 5.375 C-2 3 -2 3 0 0 Z " fill="#D1F4FE" transform="translate(401,490)"/>
<path d="M0 0 C3.32643967 2.98232523 5.29152862 5.86370087 7 10 C6.67 10.66 6.34 11.32 6 12 C2.80825974 10.40412987 1.36211198 7.19368974 0 4 C0 2.68 0 1.36 0 0 Z " fill="#DEFAFE" transform="translate(571,505)"/>
<path d="M0 0 C1.31611677 0.95336021 2.62778961 1.91285774 3.9375 2.875 C4.66839844 3.40867187 5.39929688 3.94234375 6.15234375 4.4921875 C8 6 8 6 9 8 C6.36 7.34 3.72 6.68 1 6 C0.67 4.02 0.34 2.04 0 0 Z " fill="#DCF7FD" transform="translate(553,486)"/>
<path d="M0 0 C-0.33 0.99 -0.66 1.98 -1 3 C-6.94 3 -12.88 3 -19 3 C-19 2.67 -19 2.34 -19 2 C-18.10796875 1.93941406 -17.2159375 1.87882812 -16.296875 1.81640625 C-14.54117188 1.69072266 -14.54117188 1.69072266 -12.75 1.5625 C-11.58984375 1.48128906 -10.4296875 1.40007812 -9.234375 1.31640625 C-6.11010743 1.01077138 -3.11286779 0 0 0 Z " fill="#CAEFFD" transform="translate(528,398)"/>
<path d="M0 0 C0.625 1.8125 0.625 1.8125 1 4 C-1.23943282 7.35914922 -2.26842083 7.81681636 -6 9 C-6.99 9 -7.98 9 -9 9 C-8.51789062 8.60167969 -8.03578125 8.20335937 -7.5390625 7.79296875 C-6.90742187 7.26316406 -6.27578125 6.73335937 -5.625 6.1875 C-4.99851562 5.66542969 -4.37203125 5.14335938 -3.7265625 4.60546875 C-1.7778952 2.91774261 -1.7778952 2.91774261 0 0 Z " fill="#2793E6" transform="translate(566,591)"/>
<path d="M0 0 C0.66 0.33 1.32 0.66 2 1 C-0.31 4.63 -2.62 8.26 -5 12 C-5.66 11.34 -6.32 10.68 -7 10 C-7 9.01 -7 8.02 -7 7 C-6.360625 6.731875 -5.72125 6.46375 -5.0625 6.1875 C-2.66868314 5.11332248 -2.66868314 5.11332248 -2 2 C-1.34 2 -0.68 2 0 2 C0 1.34 0 0.68 0 0 Z " fill="#2291E5" transform="translate(453,499)"/>
<path d="M0 0 C0.66 0 1.32 0 2 0 C1.52797514 4.24822374 -0.96655518 6.19989709 -4 9 C-4 7.02 -4 5.04 -4 3 C-3.34 2.67 -2.68 2.34 -2 2 C-1.34 2.33 -0.68 2.66 0 3 C0 2.01 0 1.02 0 0 Z " fill="#2293EB" transform="translate(552,375)"/>
<path d="M0 0 C2.64 0 5.28 0 8 0 C4.98029212 1.56629708 1.91349586 2.87625164 -1.25 4.125 C-2.14203125 4.47820312 -3.0340625 4.83140625 -3.953125 5.1953125 C-4.62859375 5.46085937 -5.3040625 5.72640625 -6 6 C-5.67 5.01 -5.34 4.02 -5 3 C-3.35 2.67 -1.7 2.34 0 2 C0 1.34 0 0.68 0 0 Z " fill="#D9F7FE" transform="translate(492,307)"/>
<path d="M0 0 C5.15464734 0.48324819 8.81550319 3.18610761 13 6 C12.01 6.495 12.01 6.495 11 7 C9.23793667 6.02107593 7.47823584 5.03614487 5.75390625 3.9921875 C3.86901328 2.92590061 2.13874229 2.34219877 0 2 C0 1.34 0 0.68 0 0 Z " fill="#D3F4FE" transform="translate(539,479)"/>
<path d="M0 0 C0.33 1.32 0.66 2.64 1 4 C0.34 4 -0.32 4 -1 4 C-1.103125 4.5775 -1.20625 5.155 -1.3125 5.75 C-2.09792798 8.32049158 -3.30504197 9.93657284 -5 12 C-5.66 11.67 -6.32 11.34 -7 11 C-4.69 7.37 -2.38 3.74 0 0 Z " fill="#D5F6FE" transform="translate(618,603)"/>
<path d="M0 0 C0.59425781 0.21011719 1.18851562 0.42023438 1.80078125 0.63671875 C0.53070911 1.59606065 -0.74030794 2.55415169 -2.01171875 3.51171875 C-3.07326172 4.31222656 -3.07326172 4.31222656 -4.15625 5.12890625 C-5.80378172 6.34486656 -7.49546086 7.50088016 -9.19921875 8.63671875 C-8.94580684 5.21565799 -7.89139691 4.32889691 -5.38671875 1.82421875 C-2.19921875 -0.36328125 -2.19921875 -0.36328125 0 0 Z " fill="#D6F8FE" transform="translate(484.19921875,313.36328125)"/>
<path d="M0 0 C0.33 0.66 0.66 1.32 1 2 C-1.65654657 5.73884332 -3.58110387 7.64978174 -8 9 C-7.04270084 7.87411986 -6.08412105 6.7493285 -5.125 5.625 C-4.59132813 4.99851562 -4.05765625 4.37203125 -3.5078125 3.7265625 C-2.38567993 2.44163349 -1.20628025 1.20628025 0 0 Z " fill="#D2F4FE" transform="translate(602,625)"/>
<path d="M0 0 C1.12758089 3.38274266 0.81750262 4.76778223 0.0625 8.1875 C-0.13214844 9.08855469 -0.32679688 9.98960937 -0.52734375 10.91796875 C-0.68332031 11.60503906 -0.83929688 12.29210937 -1 13 C-1.33 13 -1.66 13 -2 13 C-2 9.04 -2 5.08 -2 1 C-1.34 0.67 -0.68 0.34 0 0 Z " fill="#2590E0" transform="translate(441,523)"/>
<path d="M0 0 C2.3125 0.1875 2.3125 0.1875 5 1 C7.20970874 3.89548041 8 5.33157745 8 9 C6.66368764 7.6905332 5.33102075 6.37734515 4 5.0625 C3.2575 4.33160156 2.515 3.60070312 1.75 2.84765625 C0 1 0 1 0 0 Z " fill="#238DE0" transform="translate(558,489)"/>
<path d="M0 0 C1.32 0.99 2.64 1.98 4 3 C3.34 4.32 2.68 5.64 2 7 C0.68 5.68 -0.64 4.36 -2 3 C-1.34 2.01 -0.68 1.02 0 0 Z " fill="#1C95EE" transform="translate(482,385)"/>
<path d="M0 0 C1.67542976 0.28604898 3.34385343 0.61781233 5 1 C3.3545622 2.68762851 1.68711423 4.3540349 0 6 C-0.33 6 -0.66 6 -1 6 C-1.042721 4.33388095 -1.04063832 2.66617115 -1 1 C-0.67 0.67 -0.34 0.34 0 0 Z " fill="#2095ED" transform="translate(589,632)"/>
<path d="M0 0 C0.66 0 1.32 0 2 0 C1.46930939 3.82097239 0.50298434 6.06171403 -2 9 C-2.33 6.69 -2.66 4.38 -3 2 C-2.34 2 -1.68 2 -1 2 C-0.67 1.34 -0.34 0.68 0 0 Z " fill="#2192E6" transform="translate(621,592)"/>
<path d="M0 0 C0.66 0 1.32 0 2 0 C0.60667426 3.36720387 -0.9789286 4.9859524 -4 7 C-4.66 5.35 -5.32 3.7 -6 2 C-4.35 2 -2.7 2 -1 2 C-0.67 1.34 -0.34 0.68 0 0 Z " fill="#E1F9FE" transform="translate(569,585)"/>
<path d="M0 0 C0.66 0 1.32 0 2 0 C2.625 3.375 2.625 3.375 3 7 C2.34 7.66 1.68 8.32 1 9 C0 8 0 8 -0.09765625 6.15234375 C-0.06510417 4.1015625 -0.03255208 2.05078125 0 0 Z " fill="#2093E9" transform="translate(629,520)"/>
<path d="M0 0 C0.99 0 1.98 0 3 0 C2.54738642 1.43931117 2.08767021 2.87638999 1.625 4.3125 C1.36976563 5.11300781 1.11453125 5.91351562 0.8515625 6.73828125 C0 9 0 9 -2 12 C-1.44687265 7.97007218 -0.8441938 3.97977076 0 0 Z " fill="#2C93E2" transform="translate(444,511)"/>
<path d="M0 0 C1.32 0 2.64 0 4 0 C4 0.66 4 1.32 4 2 C5.32 1.34 6.64 0.68 8 0 C8 1.65 8 3.3 8 5 C4.62496331 3.8141763 2.35277269 2.72426311 0 0 Z " fill="#1F90E9" transform="translate(546,481)"/>
<path d="M0 0 C0.66 0.33 1.32 0.66 2 1 C1.375 2.875 1.375 2.875 0 5 C-3.125 6.25 -3.125 6.25 -6 7 C-4.02 4.69 -2.04 2.38 0 0 Z " fill="#1C8EE3" transform="translate(428,457)"/>
<path d="M0 0 C0.99 0.33 1.98 0.66 3 1 C0.03 3.475 0.03 3.475 -3 6 C-3.33 4.68 -3.66 3.36 -4 2 C-3.34 1.67 -2.68 1.34 -2 1 C-1.34 1.33 -0.68 1.66 0 2 C0 1.34 0 0.68 0 0 Z " fill="#E1F9FC" transform="translate(427,455)"/>
<path d="M0 0 C-4.455 2.97 -4.455 2.97 -9 6 C-9 5.01 -9 4.02 -9 3 C-8.01 3 -7.02 3 -6 3 C-6 2.01 -6 1.02 -6 0 C-3 -1 -3 -1 0 0 Z " fill="#D7F7FE" transform="translate(439,449)"/>
<path d="M0 0 C1.65 0 3.3 0 5 0 C4.01 0.495 4.01 0.495 3 1 C2.7834375 1.99 2.7834375 1.99 2.5625 3 C2.376875 3.66 2.19125 4.32 2 5 C1.01 5.33 0.02 5.66 -1 6 C-0.67 4.02 -0.34 2.04 0 0 Z " fill="#E2F5FC" transform="translate(440,442)"/>
<path d="M0 0 C2.97 0.495 2.97 0.495 6 1 C6 1.66 6 2.32 6 3 C7.32 3 8.64 3 10 3 C10 3.66 10 4.32 10 5 C2.42857143 3.14285714 2.42857143 3.14285714 0 0 Z " fill="#2B90E1" transform="translate(485,392)"/>
</svg>
